<svg width="1992" height="1265" viewBox="0 0 1992 1265" fill="none" xmlns="http://www.w3.org/2000/svg">
<path d="M1749.14 69.7986C1751.88 68.4452 1754.64 67.1066 1757.39 65.7681C1756.57 65.0876 1755.89 64.2277 1755.45 63.2706C1753.97 60.0477 1754.89 56.5032 1757.56 54.2001C1759.83 52.2334 1762.67 51.3211 1765.43 50.2593C1765.75 50.1396 1766.06 50.0125 1766.38 49.8854C1766.48 49.8405 1766.63 49.7807 1766.71 49.7434C1767.32 49.4667 1767.93 49.1675 1768.52 48.8385C1768.88 48.6366 1769.23 48.4197 1769.57 48.1804C1769.64 48.1356 1769.92 47.8888 1770.02 47.814C1770.33 47.5224 1770.63 47.2158 1770.93 46.9018C1771.02 46.7747 1771.1 46.6475 1771.19 46.5129C1771.33 46.2811 1771.46 46.0344 1771.59 45.7951C1771.63 45.7203 1771.66 45.6755 1771.69 45.6306C1771.73 45.4661 1771.77 45.294 1771.8 45.1819C1771.81 45.122 1771.86 44.995 1771.9 44.8679C1771.9 44.8379 1771.9 44.7556 1771.91 44.621C1771.91 44.5313 1771.91 44.4491 1771.92 44.3593C1771.92 44.2995 1771.91 44.2472 1771.91 44.1874C1771.88 44.0602 1771.84 43.8733 1771.83 43.8135C1771.81 43.7686 1771.81 43.7462 1771.8 43.7163C1771.77 43.649 1771.73 43.5891 1771.7 43.5218C1771.65 43.4321 1771.6 43.3499 1771.54 43.2676C1771.41 43.133 1771.25 42.9834 1771.24 42.9685C1771.17 42.9012 1771.12 42.8564 1771.08 42.819C1770.8 42.647 1770.25 42.3703 1770.19 42.3329C1770.18 42.3254 1770.16 42.3179 1770.15 42.3104C1769.92 42.2282 1769.68 42.1385 1769.44 42.0712C1768.94 41.9216 1768.43 41.7945 1767.93 41.6973C1767.68 41.645 1767.43 41.6075 1767.18 41.5701C1767.16 41.5701 1767.14 41.5701 1767.12 41.5627C1766 41.4729 1764.88 41.3907 1763.75 41.3533C1761.16 41.271 1758.57 41.3383 1756 41.5552C1755.22 41.6225 1754.43 41.7048 1753.65 41.7945C1753.58 41.802 1753.01 41.8842 1752.98 41.8842C1752.76 41.9142 1752.53 41.9515 1752.31 41.9815C1751.09 42.1759 1749.87 42.4001 1748.66 42.6544C1746.13 43.1928 1743.64 43.8807 1741.19 44.7108C1739.91 45.1445 1738.66 45.6305 1737.4 46.1241C1737.33 46.154 1737.27 46.1765 1737.22 46.1989C1737.18 46.2214 1737.12 46.2438 1737.05 46.2737C1736.74 46.4083 1736.43 46.5428 1736.12 46.6849C1735.58 46.9317 1735.05 47.1784 1734.52 47.4402C1732.48 48.4347 1730.58 49.5788 1728.72 50.8799C1728.68 50.9173 1728.65 50.9323 1728.62 50.9548C1728.53 51.0295 1728.44 51.0968 1728.35 51.1715C1728.2 51.2912 1728.06 51.4108 1727.91 51.5379C1727.49 51.9044 1727.07 52.2932 1726.67 52.6895C1726.28 53.0859 1725.89 53.4972 1725.54 53.9309C1725.45 54.043 1725.23 54.2449 1725.18 54.3646C1725.48 53.9757 1725.51 53.9458 1725.27 54.2748C1725.21 54.3496 1725.16 54.4244 1725.11 54.4992C1724.74 55.0301 1724.41 55.5909 1724.11 56.1667C1724 56.3686 1723.91 56.578 1723.81 56.7799C1723.81 56.7873 1723.8 56.7948 1723.8 56.8098C1723.64 57.2659 1723.49 57.7071 1723.38 58.1782C1723.37 58.2231 1723.36 58.2978 1723.35 58.3726C1723.41 58.3502 1723.43 58.5671 1723.27 58.8139C1723.24 59.27 1723.22 59.7186 1723.23 60.1748C1723.24 60.4066 1723.26 60.631 1723.28 60.8628C1723.35 61.2217 1723.42 61.5806 1723.51 61.9395C1723.58 62.2311 1723.96 62.9041 1723.94 63.2182C1723.97 63.2855 1724 63.3453 1724.03 63.4126C1724.1 63.5472 1724.18 63.6818 1724.25 63.8089C1724.38 64.0408 1724.59 64.2875 1724.77 64.5418C1724.76 64.4819 1724.84 64.5493 1724.95 64.8559C1724.95 64.8633 1724.96 64.8633 1724.96 64.8708C1725.11 65.0353 1725.26 65.1924 1725.42 65.3419C1725.51 65.4391 1725.62 65.5214 1725.72 65.6186C1725.94 65.7607 1726.16 65.9102 1726.4 66.0448C1726.4 66.0523 1726.42 66.0523 1726.43 66.0598C1726.78 66.1196 1726.84 66.1719 1726.74 66.1645C1726.94 66.2392 1727.14 66.3215 1727.33 66.3664C1727.47 66.3963 1727.61 66.4262 1727.75 66.4486C1727.94 66.4411 1728.12 66.4262 1728.24 66.4262C1728.47 66.4262 1728.71 66.4038 1728.95 66.3813C1729.08 66.3514 1729.51 66.2841 1729.57 66.2692C1732.13 65.7008 1734.5 64.482 1737.09 64.0183C1740.08 63.48 1743.26 63.607 1745.8 65.4615C1747.42 66.6056 1748.57 68.0937 1749.14 69.7986Z" fill="#555B48"/>
<path d="M967.196 871.779C913.105 891.057 855.149 882.383 799.533 892.305C774.278 896.815 749.928 906.154 728.561 920.429C719.096 926.756 709.78 933.844 702.738 942.87C695.8 951.754 690.08 961.624 684.481 971.375C668.982 998.355 653.282 1025.21 637.762 1052.18C615.617 1090.65 585.069 1123.67 549.22 1149.74C510.8 1177.68 466.196 1197.57 419.47 1206.39C365.491 1216.59 309.688 1214.23 256.218 1202.17C204.213 1190.44 152.552 1169.99 108.008 1140.46C88.9962 1127.86 71.8233 1113.22 57.0801 1096.55C76.5707 1133.55 103.149 1166.69 135.73 1192.98C169.74 1220.42 209.97 1239.55 252.495 1249.4C302.832 1261.06 355.63 1259.28 406.379 1251.14C453.958 1243.51 500.677 1229.08 543.292 1206.41C578.258 1187.81 610.578 1163.7 636.528 1133.64C671.599 1093.02 688.421 1041.33 717.877 997.099C731.492 976.655 747.842 957.609 768.35 943.805C790.868 928.647 817.072 922.665 843.815 920.698C872.038 918.627 900.552 920.474 928.618 916.324C953.238 912.682 976.474 903.53 996.854 889.21C1016.91 875.114 1033.7 856.293 1045.22 834.637C1054.48 817.222 1060.59 798.019 1064.72 778.786C1069.92 754.521 1071.49 729.695 1069.43 705.212C1069.28 710.006 1068.96 714.806 1068.48 719.615C1066.9 735.467 1066.85 751.888 1062.98 767.367C1056.93 791.588 1043.48 813.49 1027.07 832.065C1010.73 850.572 990.387 863.509 967.196 871.779Z" fill="#4A6242"/>
<path d="M1689.94 99.1769C1690.1 99.9172 1690.13 100.605 1690.06 101.278C1692.25 100.022 1694.45 98.7805 1696.65 97.5467C1692.79 95.5128 1691.43 89.7998 1693.73 85.8964C1695.16 83.4736 1697.55 81.8135 1700.04 80.6246C1701.14 80.1011 1702.27 79.6525 1703.36 79.1141C1703.86 78.8673 1704.35 78.6056 1704.83 78.3215C1705.07 78.1794 1705.28 78.0149 1705.52 77.8728C1705.56 77.8504 1705.58 77.8354 1705.61 77.8204C1705.62 77.8129 1705.63 77.8054 1705.63 77.798C1705.9 77.5587 1706.15 77.3045 1706.41 77.0652C1706.44 77.0353 1706.49 77.0053 1706.52 76.9754C1706.61 76.8334 1706.7 76.6689 1706.77 76.5492C1706.82 76.4595 1706.87 76.3623 1706.91 76.2726C1706.95 76.1305 1706.99 75.9734 1706.99 75.9809C1707 75.9136 1707.02 75.8463 1707.02 75.779C1707.02 75.6444 1707.02 75.465 1707.02 75.3453C1707.01 75.2706 1707.01 75.1658 1707.01 75.091C1706.94 74.8293 1706.83 74.5003 1706.81 74.448C1706.78 74.3208 1706.41 73.7002 1706.73 74.1638C1707.06 74.6723 1706.61 73.9694 1706.57 73.9021C1706.44 73.6703 1706.28 73.4534 1706.15 73.2291C1706.14 73.2216 1706.14 73.2142 1706.13 73.2067C1705.99 73.0572 1705.87 72.8926 1705.72 72.7505C1705.54 72.5635 1705.35 72.3991 1705.16 72.2271C1704.88 72.0701 1704.62 71.8757 1704.33 71.7186C1704.26 71.6738 1703.82 71.4793 1703.77 71.4494C1703.39 71.3073 1703 71.1802 1702.61 71.0755C1702.22 70.9708 1701.83 70.8961 1701.43 70.8288C1701.36 70.8213 1700.9 70.7615 1700.8 70.754C1700.49 70.7316 1700.17 70.7091 1699.85 70.7016C1698.69 70.6642 1697.51 70.7091 1696.35 70.8063C1695.71 70.8586 1695.07 70.9334 1694.43 71.0082C1694.42 71.0082 1694.4 71.0157 1694.39 71.0157C1694.23 71.0381 1694.14 71.0531 1694.11 71.0606C1693.91 71.0905 1693.72 71.1204 1693.51 71.1503C1691.19 71.5242 1688.88 72.0551 1686.63 72.7431C1685.4 73.117 1684.18 73.5357 1682.98 73.9918C1682.78 74.0666 1682.58 74.1489 1682.38 74.2237C1682.33 74.2461 1682.02 74.3732 1681.87 74.433C1681.45 74.6124 1681.03 74.7995 1680.62 74.9864C1678.38 76.0183 1676.21 77.2147 1674.14 78.5532C1673.25 79.129 1672.39 79.7347 1671.55 80.3554C1671.42 80.4526 1671.23 80.5947 1671.18 80.6395C1670.98 80.7966 1670.79 80.9461 1670.61 81.1106C1670.2 81.4621 1669.79 81.8136 1669.4 82.1875C1668.61 82.9278 1667.9 83.7203 1667.19 84.5279C1667.16 84.5653 1667.14 84.5878 1667.12 84.6178C1667.1 84.6402 1667.09 84.6626 1667.07 84.685C1666.91 84.9243 1666.73 85.1561 1666.58 85.3954C1666.32 85.7917 1666.06 86.203 1665.84 86.6217C1665.65 86.9582 1665.49 87.2947 1665.32 87.6387C1665.29 87.6985 1665.26 87.7509 1665.22 87.7958C1665.04 88.2071 1664.94 88.7753 1664.84 89.1567C1664.8 89.3436 1664.75 89.5306 1664.72 89.7175C1664.71 89.7474 1664.7 89.7848 1664.7 89.8148C1664.75 90.0092 1664.63 90.7943 1664.63 90.9887C1664.63 91.0635 1664.68 91.3103 1664.7 91.5347C1664.75 91.6094 1664.78 91.7888 1664.72 91.9159C1664.82 92.3197 1664.91 92.731 1665.05 93.1273C1665.1 93.2844 1665.16 93.4414 1665.22 93.6059C1665.43 94.0022 1665.63 94.3986 1665.87 94.7725C1665.93 94.8772 1666 94.9744 1666.07 95.0791C1666.1 95.124 1666.11 95.1464 1666.14 95.1763C1666.25 95.3034 1666.36 95.4306 1666.38 95.4455C1666.45 95.5278 1666.84 95.8642 1667.06 96.0811C1667.14 96.1334 1667.21 96.1858 1667.22 96.2381C1667.35 96.3204 1667.47 96.4027 1667.61 96.4774C1667.69 96.5223 1668.01 96.6494 1668.16 96.7391C1668.16 96.7391 1668.18 96.7466 1668.19 96.7466C1668.39 96.8139 1668.61 96.8588 1668.83 96.9111C1669.05 96.9111 1669.28 96.9186 1669.5 96.9186C1669.54 96.9186 1669.59 96.9111 1669.64 96.9111C1670.21 96.7915 1670.76 96.627 1671.31 96.455C1671.35 96.44 1671.42 96.4176 1671.49 96.3877C1671.73 96.283 1671.97 96.1708 1672.2 96.0586C1674.59 94.8996 1676.93 93.4863 1679.6 93.0601C1682.61 92.574 1685.72 93.1648 1687.89 95.453C1688.83 96.4625 1689.63 97.7711 1689.94 99.1769Z" fill="#555B48"/>
<path d="M1827.46 32.1848C1827.95 32.8428 1828.31 33.5906 1828.57 34.3683C1829.58 34.0168 1830.61 33.6804 1831.65 33.3738C1831.17 32.798 1830.69 32.2297 1830.21 31.6539C1829.22 30.4724 1828.58 28.5207 1829.63 27.1224C1831.64 24.4304 1834.31 22.7404 1837.54 21.8431C1838.98 21.4468 1840.45 21.2448 1841.93 21.0654C1842.7 20.9681 1843.47 20.8934 1844.25 20.8186C1844.69 20.7738 1845.13 20.7215 1845.57 20.6766C1845.66 20.6691 1845.72 20.6616 1845.76 20.6616C1845.8 20.6541 1845.84 20.6466 1845.9 20.6392C1846.66 20.512 1847.41 20.3775 1848.16 20.1756C1848.59 20.0634 1849 19.9138 1849.42 19.7792C1849.45 19.7717 1849.48 19.7643 1849.51 19.7568C1849.53 19.7418 1849.55 19.7344 1849.58 19.7119C1849.96 19.5026 1850.75 19.2334 1850.99 18.8744C1850.6 19.1885 1850.56 19.2109 1850.87 18.9567C1851.01 18.837 1851.14 18.7174 1851.28 18.5903C1851.47 18.4108 1851.63 18.2164 1851.81 18.0294C1851.88 17.9173 1851.97 17.8051 1852.03 17.6855C1852.08 17.6182 1852.15 17.506 1852.22 17.3938C1852.22 17.3863 1852.24 17.319 1852.3 17.162C1852.34 17.005 1852.39 16.8479 1852.42 16.6909C1852.42 16.6685 1852.41 16.6535 1852.41 16.6236C1852.41 16.5115 1852.4 16.3993 1852.39 16.2946C1852.39 16.2871 1852.39 16.2871 1852.39 16.2796C1852.36 16.1749 1852.33 16.0254 1852.3 15.8908C1852.29 15.8684 1852.26 15.8085 1852.19 15.6739C1852.1 15.5169 1852.01 15.3599 1851.91 15.2103C1851.9 15.1879 1851.86 15.1281 1851.82 15.0608C1851.79 15.0308 1851.74 14.9785 1851.66 14.8813C1851.53 14.7392 1851.41 14.6046 1851.27 14.4775C1851.07 14.2756 1850.86 14.0812 1850.65 13.9017C1850.62 13.8718 1850.55 13.8045 1850.47 13.7372C1850.28 13.5652 1850.03 13.4232 1849.82 13.2736C1848.88 12.638 1847.88 12.0697 1846.88 11.5463C1846.28 11.2397 1845.69 10.9405 1845.08 10.6638C1844.86 10.5666 1844.65 10.4695 1844.43 10.3722C1844.42 10.3722 1844.42 10.3648 1844.41 10.3648C1843.35 9.946 1842.28 9.54965 1841.19 9.21315C1840 8.84674 1838.8 8.54016 1837.6 8.28592C1837.04 8.16628 1836.48 8.06159 1835.92 7.96438C1835.65 7.91952 1834.18 7.62791 1835.21 7.85224C1832.95 7.35871 1830.37 7.46339 1828.08 7.5606C1826.94 7.61295 1825.8 7.71764 1824.66 7.84476C1824.65 7.84476 1824.65 7.84476 1824.63 7.84476C1824.6 7.85224 1824.57 7.85969 1824.52 7.86717C1824.24 7.91204 1823.95 7.9569 1823.68 8.00176C1823.12 8.09897 1822.55 8.2037 1821.99 8.32335C1819.76 8.80192 1817.57 9.45994 1815.45 10.3049C1815.33 10.3573 1815.2 10.4021 1815.08 10.4545C1815.06 10.462 1815.05 10.4694 1815.02 10.4769C1814.76 10.5965 1814.5 10.7087 1814.24 10.8284C1813.73 11.0677 1813.21 11.3219 1812.71 11.5836C1811.69 12.1071 1810.71 12.6828 1809.74 13.296C1809.26 13.6026 1808.78 13.9242 1808.32 14.2532C1808.09 14.4177 1807.86 14.5897 1807.62 14.7617C1807.59 14.7841 1807.57 14.799 1807.54 14.8215C1807.52 14.8439 1807.49 14.8663 1807.46 14.8888C1806.56 15.6366 1805.68 16.3993 1804.87 17.2368C1804.39 17.7229 1803.93 18.2313 1803.5 18.7548C1803.39 18.8894 1802.73 19.5474 1803.36 18.9118C1803.17 19.1062 1803.01 19.3904 1802.86 19.6147C1802.27 20.4747 1801.79 21.3795 1801.33 22.3142C1801.27 22.4637 1801.22 22.6058 1801.17 22.7553C1801.07 23.0245 1800.99 23.2938 1800.9 23.563C1800.78 24.0117 1800.46 24.7594 1800.53 25.223C1800.59 24.6996 1800.6 24.6547 1800.55 25.0809C1800.54 25.1781 1800.54 25.2753 1800.53 25.3651C1800.51 25.6193 1800.5 25.8661 1800.5 26.1203C1800.5 26.3746 1800.51 26.6213 1800.52 26.8756C1800.53 27.0251 1800.54 27.1747 1800.57 27.3242C1800.66 27.728 1800.82 28.2814 1800.85 28.3711C1800.93 28.6179 1801.02 28.8498 1801.09 29.0965C1801.1 29.1115 1801.1 29.1189 1801.1 29.1339C1801.1 29.1339 1801.1 29.1414 1801.11 29.1414C1801.34 29.59 1801.56 30.0462 1801.84 30.4724C1801.87 30.5173 1801.94 30.6593 1802.02 30.7939C1802.05 30.8238 1802.08 30.8687 1802.14 30.936C1802.19 30.9959 1802.24 31.0632 1802.3 31.1305C1802.68 31.5642 1803.09 31.9455 1803.51 32.3269C1803.53 32.3344 1803.54 32.3419 1803.55 32.3493C1803.76 32.4765 1803.95 32.6111 1804.16 32.7307C1804.31 32.813 1804.49 32.8877 1804.64 32.9774C1804.92 33.0447 1805.69 33.1794 1805.91 33.2915C1806 33.299 1806.08 33.299 1806.17 33.299C1806.31 33.299 1806.44 33.2915 1806.58 33.2841C1806.4 33.2841 1807.03 33.2317 1807.17 33.1943C1807.48 33.1196 1807.77 33.0372 1808.07 32.9325C1808.14 32.9101 1808.52 32.7606 1808.63 32.7232C1808.83 32.6335 1809.02 32.5438 1809.22 32.454C1809.79 32.1699 1810.35 31.8632 1810.91 31.5567C1813.62 30.0686 1816.37 28.6553 1819.5 28.4459C1822.7 28.2216 1825.58 29.6049 1827.46 32.1848Z" fill="#555B48"/>
<path d="M1883.06 200.06C1880.35 201.518 1877.65 202.984 1874.95 204.442C1878.25 208.241 1881.55 212.039 1884.85 215.838C1885.89 217.035 1886.42 218.941 1885.43 220.37C1884.61 221.559 1883.69 222.688 1882.6 223.645C1878.53 227.227 1873.35 228.677 1868.82 231.511C1868.27 231.855 1867.75 232.222 1867.23 232.596C1867.17 232.648 1867.11 232.7 1867.1 232.708C1866.89 232.887 1866.68 233.067 1866.49 233.246C1866.05 233.65 1865.67 234.084 1865.27 234.518C1865.19 234.622 1865.09 234.734 1865.04 234.802C1864.89 235.019 1864.75 235.243 1864.62 235.467C1864.5 235.677 1864.37 236.103 1864.2 236.32C1864.18 236.372 1864.17 236.424 1864.15 236.477C1864.07 236.731 1864 236.985 1863.94 237.239C1863.93 237.314 1863.91 237.396 1863.9 237.471C1863.9 237.883 1863.94 238.331 1863.93 238.75C1863.93 238.802 1863.93 238.877 1863.92 238.959C1863.94 239.034 1863.95 239.116 1863.97 239.191C1864.03 239.43 1864.1 239.67 1864.17 239.909C1864.2 240.006 1864.24 240.096 1864.28 240.193C1864.4 240.403 1864.5 240.627 1864.62 240.836C1864.74 241.053 1864.88 241.27 1865.01 241.487C1865.06 241.562 1865.12 241.636 1865.17 241.711C1865.36 241.861 1865.56 242.19 1865.71 242.354C1865.92 242.579 1866.13 242.803 1866.35 243.02C1866.43 243.102 1867.2 243.745 1867.46 243.984C1867.51 244.022 1867.55 244.052 1867.55 244.067C1867.56 244.067 1867.56 244.074 1867.57 244.074C1867.68 244.156 1867.79 244.231 1867.91 244.313C1868.13 244.47 1868.36 244.62 1868.59 244.77C1869.09 245.091 1869.62 245.39 1870.15 245.674C1870.43 245.824 1870.72 245.973 1871.01 246.108C1871.08 246.145 1871.29 246.243 1871.46 246.317C1871.59 246.37 1871.92 246.504 1872 246.534C1872.29 246.646 1872.59 246.751 1872.88 246.848C1874.19 247.282 1875.52 247.641 1876.87 247.933C1877.6 248.09 1878.34 248.232 1879.08 248.351C1879.24 248.374 1879.52 248.419 1879.61 248.434C1879.91 248.471 1880.2 248.501 1880.48 248.531C1883.31 248.822 1886.17 248.815 1889 248.531C1889.22 248.508 1889.43 248.486 1889.65 248.464C1889.67 248.464 1889.74 248.456 1889.81 248.441C1889.86 248.434 1889.91 248.426 1889.93 248.426C1890.14 248.396 1890.36 248.359 1890.57 248.329C1891.2 248.224 1891.84 248.105 1892.47 247.977C1893.89 247.678 1895.28 247.305 1896.67 246.863C1897.38 246.632 1898.09 246.385 1898.79 246.116C1899.05 246.011 1899.32 245.906 1899.58 245.801C1899.76 245.719 1899.94 245.644 1900.13 245.562C1901.28 245.039 1902.41 244.455 1903.51 243.827C1904.63 243.184 1905.71 242.489 1906.77 241.741C1907.04 241.547 1907.31 241.352 1907.58 241.15C1907.66 241.09 1907.75 241.031 1907.82 240.971C1907.83 240.963 1907.83 240.963 1907.84 240.948C1908.29 240.582 1908.73 240.223 1909.17 239.849C1911.12 238.159 1912.92 236.297 1914.54 234.278C1914.56 234.248 1914.65 234.136 1914.71 234.046C1914.72 234.031 1914.74 234.024 1914.74 234.017C1914.91 233.785 1915.08 233.553 1915.25 233.321C1915.61 232.82 1915.96 232.304 1916.3 231.788C1917.01 230.711 1917.67 229.597 1918.27 228.461C1918.58 227.87 1918.88 227.272 1919.16 226.666C1919.28 226.404 1919.4 226.142 1919.52 225.881C1919.54 225.828 1919.56 225.791 1919.57 225.761C1919.58 225.746 1919.58 225.731 1919.59 225.716C1920.02 224.632 1920.41 223.533 1920.71 222.411C1920.87 221.828 1921 221.245 1921.12 220.646C1921.17 220.392 1921.22 220.138 1921.26 219.884C1921.29 219.771 1921.29 219.607 1921.29 219.472C1921.28 219.151 1921.29 219.263 1921.29 219.472C1921.29 219.54 1921.29 219.614 1921.29 219.727C1921.26 218.627 1921.49 217.506 1921.46 216.392C1921.44 215.838 1921.32 215.247 1921.33 214.694C1921.33 214.672 1921.32 214.657 1921.32 214.634C1921.27 214.35 1921.22 214.073 1921.15 213.789C1921.03 213.273 1920.89 212.772 1920.73 212.271C1920.71 212.219 1920.63 212.017 1920.57 211.852C1920.51 211.725 1920.44 211.568 1920.41 211.509C1920.16 211.015 1919.87 210.544 1919.57 210.08C1919.56 210.073 1919.54 210.043 1919.51 209.998C1919.34 209.819 1919.19 209.632 1919.02 209.46C1918.83 209.258 1918.62 209.071 1918.42 208.876C1918.36 208.831 1918.34 208.802 1918.31 208.772C1917.83 208.45 1917.35 208.166 1916.85 207.889C1916.81 207.867 1916.78 207.852 1916.75 207.837C1916.63 207.792 1916.52 207.747 1916.4 207.71C1916.12 207.613 1915.84 207.53 1915.56 207.456C1915.23 207.366 1914.89 207.321 1914.57 207.239C1914.54 207.231 1914.52 207.224 1914.5 207.224C1914.46 207.224 1914.42 207.224 1914.39 207.216C1913.71 207.156 1913.02 207.141 1912.32 207.179C1912.02 207.194 1911.73 207.231 1911.43 207.246C1911.4 207.246 1911.39 207.246 1911.37 207.246C1911.27 207.269 1911.18 207.284 1911.09 207.299C1910.45 207.418 1909.82 207.568 1909.2 207.755C1908.86 207.852 1908.53 207.964 1908.21 208.084C1908.09 208.129 1907.9 208.203 1907.79 208.248C1906.53 208.824 1905.31 209.49 1904.14 210.245C1903.51 210.656 1902.89 211.082 1902.29 211.531C1902.16 211.628 1902.03 211.725 1901.9 211.823C1901.89 211.83 1901.82 211.882 1901.76 211.927C1901.7 211.972 1901.64 212.017 1901.63 212.024C1901.5 212.129 1901.38 212.226 1901.25 212.331C1900.11 213.243 1899 214.193 1897.89 215.143C1896.03 216.735 1893.38 216.534 1892.02 214.387C1889.15 209.833 1886.27 205.28 1883.39 200.726C1883.25 200.509 1883.13 200.284 1883.06 200.06Z" fill="#555B48"/>
<path d="M1952.53 155.77C1952.76 155.643 1953 155.531 1953.26 155.448C1953.42 155.396 1953.59 155.359 1953.76 155.336C1953.55 153.856 1954.14 152.173 1955.54 151.53C1957.91 150.431 1959.94 148.89 1961.55 146.819C1969.6 136.507 1965.26 121.597 1961.37 110.515C1957.46 99.3878 1951.69 88.8891 1944.55 79.512C1929.62 59.8979 1908.29 45.3312 1884.24 39.5958C1871.66 36.5972 1858.37 35.9765 1845.58 37.9955C1842.31 38.5115 1839.06 39.192 1835.86 40.0221C1834.19 40.4558 1832.54 40.9268 1830.89 41.4428C1830.76 41.4876 1830.01 41.6821 1829.81 41.7269C1829.72 41.7718 1829.61 41.8167 1829.52 41.8616C1826.74 42.9608 1824.04 44.2544 1821.29 45.4135C1794.32 56.7871 1767.67 68.6543 1741.58 81.9348C1715.84 95.0358 1690.62 109.161 1665.96 124.191C1664.57 129.164 1662.75 133.995 1660.57 138.676C1652.78 155.396 1639.87 169.858 1624.01 179.303C1626.18 181.71 1628.37 184.118 1630.54 186.526C1653.14 211.509 1675.74 236.5 1698.34 261.483C1703.19 259.127 1708.22 257.131 1713.37 255.553C1723.33 252.502 1733.83 250.954 1744.24 250.977C1749.56 250.984 1754.86 251.448 1760.11 252.248C1761.41 252.45 1762.71 252.674 1764.01 252.928C1764.58 253.041 1765.17 253.13 1765.73 253.28C1765.9 253.325 1766.01 253.355 1766.09 253.384C1766.8 253.467 1767.51 253.527 1768.23 253.586C1781.19 246.587 1794.14 239.595 1807.09 232.596C1830.76 219.817 1854.42 207.037 1878.08 194.258C1901.74 181.479 1925.41 168.699 1949.07 155.92C1950.17 155.314 1951.46 155.284 1952.53 155.77Z" fill="#5D6B34"/>
<path d="M1984.24 172.909C1984.24 172.879 1984.23 172.737 1984.21 172.595C1984.21 172.542 1984.19 172.49 1984.18 172.4C1984.09 171.944 1983.99 171.496 1983.85 171.054C1983.82 170.95 1983.72 170.763 1983.7 170.636C1983.69 170.613 1983.68 170.598 1983.67 170.576C1983.65 170.531 1983.55 170.374 1983.46 170.224C1983.41 170.187 1983.37 170.15 1983.34 170.105C1983.23 170.12 1983.03 170.105 1983.14 170.052C1983.03 170.082 1982.91 170.097 1982.81 170.135C1982.74 170.15 1982.21 170.352 1982.19 170.352C1979.95 171.331 1977.8 172.595 1975.64 173.709C1971.02 176.087 1966.4 178.472 1961.77 180.85C1959.59 181.972 1957.01 181.015 1956.28 178.614C1954.71 173.425 1953.14 168.243 1951.56 163.053C1949.91 163.943 1948.27 164.825 1946.63 165.715C1946.45 165.813 1946.28 165.91 1946.1 166C1948.05 170.374 1950 174.748 1951.95 179.123C1952.77 180.97 1952.48 183.139 1950.61 184.238C1944.1 188.036 1937.59 191.835 1931.08 195.634C1931.48 196.082 1931.89 196.531 1932.31 196.957C1933.05 197.698 1933.82 198.408 1934.62 199.074C1934.83 199.238 1935.03 199.403 1935.23 199.567C1935.24 199.575 1935.24 199.575 1935.24 199.582C1935.26 199.597 1935.27 199.604 1935.3 199.619C1935.69 199.896 1936.07 200.18 1936.47 200.457C1938.17 201.616 1939.96 202.618 1941.83 203.47C1941.91 203.508 1942.59 203.785 1942.5 203.762C1942.56 203.785 1942.62 203.807 1942.63 203.814C1943.12 204.009 1943.61 204.188 1944.1 204.36C1945.1 204.704 1946.1 205.003 1947.12 205.258C1948.01 205.482 1948.9 205.669 1949.81 205.826C1950.02 205.863 1950.24 205.901 1950.45 205.931C1950.53 205.946 1951.38 206.013 1950.74 205.975C1950.08 205.938 1950.94 205.998 1951.02 206.005C1951.28 206.035 1951.54 206.058 1951.8 206.08C1953.62 206.237 1955.45 206.252 1957.28 206.118C1957.75 206.08 1958.22 206.028 1958.7 205.983C1958.88 205.953 1959.08 205.923 1959.27 205.893C1960.17 205.744 1961.06 205.549 1961.95 205.325C1962.84 205.093 1963.71 204.824 1964.58 204.517C1964.98 204.375 1965.38 204.218 1965.78 204.061C1965.79 204.061 1965.79 204.054 1965.79 204.054C1966.03 203.942 1966.28 203.837 1966.52 203.717C1968.2 202.917 1969.81 201.967 1971.32 200.898C1971.54 200.741 1971.75 200.584 1971.97 200.427C1971.98 200.42 1971.99 200.412 1972 200.405C1972.33 200.143 1972.66 199.874 1972.98 199.604C1973.69 198.999 1974.37 198.363 1975.03 197.705C1975.68 197.047 1976.32 196.359 1976.92 195.649C1977.16 195.365 1977.43 195.08 1977.65 194.781C1977.67 194.744 1977.71 194.699 1977.75 194.639C1977.91 194.422 1978.08 194.213 1978.23 193.996C1979.32 192.478 1980.28 190.87 1981.13 189.203C1981.34 188.769 1981.56 188.328 1981.76 187.879C1981.83 187.73 1981.91 187.565 1981.98 187.408C1981.99 187.371 1982 187.333 1982.02 187.304C1982.37 186.436 1982.68 185.561 1982.96 184.671C1983.23 183.782 1983.48 182.884 1983.68 181.972C1983.88 181.119 1984.19 180.11 1984.18 179.228C1984.16 179.385 1984.14 179.542 1984.12 179.691C1984.14 179.512 1984.16 179.34 1984.18 179.16C1984.2 178.943 1984.22 178.719 1984.24 178.502C1984.28 178.061 1984.31 177.62 1984.33 177.179C1984.38 176.251 1984.38 175.317 1984.33 174.382C1984.32 173.881 1984.29 173.395 1984.24 172.909Z" fill="#555B48"/>
<path d="M1616.52 182.15C1609.98 185.62 1603.45 189.09 1596.91 192.567C1529.07 228.617 1461.22 264.682 1393.38 300.755C1317.11 341.314 1240.83 381.873 1164.56 422.44C1085.72 464.375 1006.87 506.311 928.028 548.238C852.473 588.424 776.918 628.602 701.355 668.772C652.371 694.817 603.379 720.854 554.387 746.884L554.394 746.892L506.008 772.6L576.098 858.467L622.63 834.045L622.638 834.165C726.393 779.914 829.962 725.311 933.515 670.686C1043.36 612.749 1153.18 554.759 1263.15 497.061C1323.18 465.564 1383.29 434.225 1443.38 402.856C1490.32 378.351 1537.26 353.862 1584.2 329.35C1621.65 309.788 1659.09 290.204 1696.54 270.627C1694.14 267.972 1691.74 265.318 1689.34 262.656C1665.07 235.826 1640.79 208.988 1616.52 182.15Z" fill="#76854D"/>
<path d="M330.293 847.117C330.293 908.554 394.35 958.535 473.09 958.535C551.83 958.535 615.886 908.554 615.886 847.117C615.886 846.795 615.886 846.466 615.879 846.144C603.386 852.673 590.893 859.193 578.393 865.706L574.169 867.92L494.457 770.268L537.206 747.55C517.409 739.781 495.414 735.698 473.082 735.698C394.35 735.698 330.293 785.679 330.293 847.117Z" fill="#323A30"/>
<path d="M285.846 914.529C285.001 913.415 284.156 912.308 283.304 911.209C283.252 911.142 283.214 911.089 283.184 911.052C283.154 911.015 283.117 910.962 283.072 910.91C282.87 910.648 282.661 910.379 282.459 910.117C282.115 909.676 281.771 909.235 281.427 908.794C279.783 906.685 278.115 904.584 276.441 902.49C273.091 898.31 269.69 894.167 266.236 890.077C259.544 882.143 252.651 874.381 245.586 866.791C245.19 866.941 244.779 867.03 244.36 867.06C242.775 867.165 241.19 867.27 239.613 867.419C238.82 867.494 238.035 867.576 237.243 867.674C237.228 867.674 237.168 867.681 237.108 867.689C236.974 867.711 236.779 867.741 236.719 867.748C236.383 867.801 236.046 867.853 235.718 867.913C234.162 868.182 232.63 868.534 231.12 868.997C230.379 869.229 229.639 869.491 228.914 869.782C228.824 869.827 228.623 869.917 228.51 869.969C228.219 870.111 227.927 870.253 227.643 870.403C227.067 870.709 226.507 871.039 225.968 871.397C225.699 871.577 225.43 871.764 225.169 871.951C225.161 871.951 225.154 871.958 225.154 871.966C225.071 872.026 224.974 872.108 224.937 872.138C224.683 872.347 222.148 874.591 222.305 874.785C222.582 874.426 222.634 874.351 222.47 874.568C222.417 874.643 222.357 874.718 222.305 874.792C222.223 874.905 222.148 875.017 222.073 875.129C221.894 875.391 221.722 875.66 221.565 875.937C221.4 876.206 221.251 876.482 221.109 876.766C221.064 876.856 221.004 877.028 220.944 877.193C220.952 877.223 220.907 877.372 220.802 877.469C220.802 877.477 220.795 877.484 220.795 877.492C220.75 877.619 220.705 877.746 220.66 877.873C220.563 878.172 220.481 878.479 220.406 878.786C220.346 879.047 220.301 879.309 220.242 879.571C220.234 879.668 220.219 879.758 220.219 879.855C220.167 880.58 220.189 881.298 220.242 882.016C220.249 882.098 220.249 882.15 220.249 882.203C220.264 882.27 220.287 882.345 220.294 882.39C220.361 882.741 220.436 883.093 220.526 883.437C220.705 884.14 220.944 884.813 221.191 885.493C221.206 885.545 221.244 885.628 221.273 885.695C221.303 885.755 221.318 885.792 221.318 885.8C221.333 885.83 221.348 885.86 221.363 885.889C221.52 886.226 221.677 886.555 221.849 886.884C222.507 888.163 223.262 889.396 224.07 890.593C225.864 893.27 227.875 895.805 229.811 898.377C233.961 903.888 238.117 909.407 242.267 914.918C250.573 925.948 258.879 936.97 267.178 947.999C275.476 959.029 283.79 970.051 292.089 981.081C299.602 991.056 307.116 1001.03 314.63 1011.01C322.472 1005.81 330.315 1000.62 338.157 995.423C332.984 985.919 327.586 976.542 321.941 967.315C310.794 949.121 298.742 931.504 285.846 914.529Z" fill="#76854D"/>
<path d="M896.859 698.473C805.709 746.533 714.543 794.562 623.228 842.3C623.31 843.908 623.363 845.516 623.363 847.116C623.363 879.046 607.61 909.009 579.013 931.487C550.678 953.756 513.065 966.012 473.09 966.012C433.114 966.012 395.493 953.749 367.166 931.487C338.569 909.017 322.817 879.053 322.817 847.116C322.817 815.179 338.569 785.223 367.166 762.745C395.501 740.476 433.114 728.22 473.09 728.22C498.546 728.22 523.622 733.342 545.751 743.018C605.233 711.41 664.714 679.794 724.195 648.171C800.468 607.611 876.741 567.052 953.014 526.485C957.41 524.145 961.798 521.812 966.194 519.471C950.18 507.425 931.923 498.496 912.926 492.222C873.698 479.263 829.341 475.51 788.842 484.632C745.719 494.353 704.076 518.05 672.579 548.874C639.093 581.649 618.705 628.385 573.518 647.528C528.593 666.566 478.577 658.886 432.86 647.311C395.359 637.821 358.12 626.448 319.699 621.168C273.855 614.872 227.584 623.935 187.324 646.593C156.156 664.136 124.569 684.206 99.7923 710.363C98.0653 712.188 96.3906 714.065 94.7832 716.001C94.7159 716.084 94.6187 716.196 94.5364 716.3C94.0729 716.891 93.6169 717.482 93.1608 718.065C89.2807 723.06 85.4827 728.115 81.7894 733.245C66.5902 754.317 52.946 776.556 41.5522 799.916C19.086 845.964 5.72592 896.746 7.6548 948.208C9.50144 997.456 25.2091 1047 56.7739 1085.36C89.2657 1124.85 135.222 1151.33 181.912 1170.65C232.01 1191.38 285.794 1203.91 340.087 1205.23C390.709 1206.46 441.443 1197.91 487.691 1176.92C530.477 1157.5 569.115 1128.89 599.715 1093.19C621.793 1067.43 637.47 1037.52 654.419 1008.34C662.822 993.874 671.166 979.375 679.569 964.905C684.81 955.88 690.23 946.906 696.622 938.636C703.284 930.014 711.687 923.195 720.532 916.891C740.493 902.668 763.498 892.693 787.347 887.167C814.658 880.833 843.045 880.34 870.932 879.046C921.471 876.698 978.567 871.725 1015.9 833.155C1033.42 815.052 1048.04 793.119 1054.89 768.682C1059.27 753.061 1059.29 736.483 1060.92 720.398C1062.23 707.454 1062.58 694.578 1061.09 681.619C1058.67 660.554 1052.57 639.93 1045.87 619.852C996.189 646.077 946.532 672.279 896.859 698.473ZM344.954 999.856C335.19 1006.32 325.419 1012.79 315.655 1019.26C313.815 1020.48 311.699 1019.46 310.541 1017.92C309.494 1016.53 308.447 1015.14 307.401 1013.75C298.833 1002.38 290.265 991.003 281.705 979.629C273.174 968.308 264.644 956.979 256.121 945.658C247.598 934.336 239.06 923.008 230.537 911.686C226.403 906.198 222.089 900.799 218.157 895.161C214.403 889.777 211.533 883.331 213.23 876.668C214.688 870.94 219.285 866.199 224.496 863.634C230.687 860.583 237.587 860.03 244.368 859.574C244.989 859.536 245.564 859.679 246.065 859.955C247.434 859.394 249.176 859.664 250.192 860.748C258.416 869.557 266.401 878.597 274.116 887.862C287.962 904.485 300.986 921.804 313.09 939.735C325.082 957.495 336.169 975.86 346.307 994.742C347.294 996.604 346.681 998.712 344.954 999.856Z" fill="#FCF4D7"/>
<path d="M1809.43 239.819C1806.84 241.217 1804.25 242.616 1801.66 244.014C1801.89 244.201 1802.11 244.395 1802.34 244.59C1804.92 246.878 1806.92 249.862 1807.39 253.331C1807.82 256.562 1806.83 260.016 1804.28 262.185C1802.24 263.92 1799.79 264.847 1797.22 265.497C1796.07 265.782 1794.92 266.028 1793.79 266.335C1793.2 266.492 1792.62 266.656 1792.05 266.851C1791.83 266.926 1791.63 267.015 1791.41 267.083C1791.37 267.098 1791.33 267.113 1791.3 267.135C1790.82 267.367 1790.36 267.651 1789.91 267.943C1789.82 268.032 1789.64 268.167 1789.58 268.212C1789.37 268.414 1789.16 268.623 1788.96 268.847C1788.89 268.937 1788.81 269.019 1788.74 269.109C1788.59 269.348 1788.42 269.58 1788.28 269.827C1788.15 270.044 1788.02 270.268 1787.91 270.5C1787.9 270.508 1787.86 270.59 1787.81 270.68C1787.6 271.285 1787.39 271.883 1787.24 272.512C1787.21 272.691 1786.99 273.588 1787.13 273.035C1787.27 272.504 1787.11 273.364 1787.09 273.573C1787.07 274.179 1787.09 274.785 1787.12 275.391C1787.12 275.405 1787.12 275.413 1787.12 275.428C1787.13 275.465 1787.14 275.503 1787.15 275.548C1787.2 275.847 1787.27 276.138 1787.35 276.43C1787.45 276.789 1787.56 277.14 1787.68 277.484C1787.69 277.522 1787.75 277.664 1787.8 277.783C1788.09 278.329 1788.36 278.883 1788.69 279.414C1788.89 279.72 1789.11 280.019 1789.32 280.318C1789.32 280.333 1789.32 280.333 1789.33 280.341C1789.4 280.416 1789.47 280.483 1789.5 280.528C1789.9 280.984 1790.32 281.41 1790.75 281.821C1791.02 282.076 1791.31 282.3 1791.59 282.554C1791.6 282.562 1791.6 282.562 1791.6 282.569C1791.68 282.621 1791.75 282.674 1791.82 282.734C1792.35 283.115 1792.9 283.459 1793.46 283.788C1793.58 283.855 1794.42 284.311 1794.89 284.536C1794.89 284.536 1794.89 284.536 1794.89 284.536C1794.92 284.543 1794.99 284.573 1795.14 284.626C1795.3 284.685 1795.45 284.745 1795.62 284.805C1795.98 284.94 1796.36 285.067 1796.74 285.179C1797.55 285.426 1798.36 285.62 1799.19 285.777C1799.5 285.837 1799.8 285.882 1800.12 285.934C1800.18 285.934 1800.71 286.001 1800.87 286.016C1802.45 286.158 1804.04 286.173 1805.62 286.091C1806.47 286.046 1807.32 285.971 1808.16 285.874C1808.28 285.859 1808.41 285.844 1808.53 285.829C1808.54 285.829 1808.54 285.829 1808.54 285.829C1808.87 285.777 1809.19 285.732 1809.52 285.672C1810.82 285.456 1812.12 285.179 1813.4 284.85C1814.72 284.506 1816.03 284.11 1817.32 283.653C1817.94 283.437 1818.56 283.205 1819.18 282.958C1819.26 282.928 1819.36 282.883 1819.46 282.846C1819.77 282.734 1820.07 282.584 1820.36 282.449C1822.82 281.343 1825.18 280.027 1827.41 278.539C1828 278.15 1828.59 277.739 1829.16 277.327C1829.38 277.163 1829.79 276.961 1829.95 276.736C1829.93 276.751 1829.42 277.155 1829.75 276.886C1829.87 276.796 1829.98 276.714 1830.09 276.624C1831.16 275.772 1832.2 274.875 1833.19 273.94C1834.19 273.005 1835.14 272.025 1836.06 271.008C1836.51 270.515 1836.94 270.014 1837.36 269.506C1837.57 269.251 1837.77 268.99 1837.98 268.735C1837.99 268.728 1837.99 268.728 1837.99 268.72C1838.05 268.646 1838.11 268.563 1838.17 268.481C1839.77 266.35 1841.24 264.084 1842.33 261.646C1842.37 261.564 1842.4 261.474 1842.44 261.385C1842.45 261.37 1842.45 261.362 1842.46 261.347C1842.47 261.295 1842.49 261.25 1842.49 261.228C1842.61 260.921 1842.73 260.607 1842.83 260.293C1843.04 259.672 1843.23 259.037 1843.38 258.401C1843.47 258.042 1843.54 257.676 1843.61 257.309C1843.63 257.175 1843.65 257.04 1843.68 256.898C1843.76 256.464 1843.64 257.212 1843.64 257.212C1843.85 256.748 1843.75 255.829 1843.74 255.328C1843.74 254.976 1843.71 254.625 1843.69 254.273C1843.69 254.266 1843.69 254.258 1843.69 254.251C1843.68 254.214 1843.68 254.161 1843.66 254.109C1843.56 253.57 1843.4 253.047 1843.23 252.531C1843.17 252.426 1843.12 252.314 1843.06 252.21C1842.92 251.94 1842.76 251.679 1842.59 251.424C1842.56 251.387 1842.5 251.297 1842.44 251.23C1842.22 251.006 1842.02 250.781 1841.8 250.572C1841.7 250.482 1841.53 250.37 1841.41 250.258C1841.2 250.123 1840.99 249.981 1840.77 249.861C1840.65 249.787 1839.8 249.308 1840.29 249.592C1840.73 249.854 1840.04 249.503 1839.88 249.45C1839.56 249.338 1839.21 249.241 1838.88 249.159C1838.68 249.114 1838.2 249.099 1838.01 248.994C1837.93 248.987 1837.85 248.979 1837.77 248.972C1837.46 248.949 1837.14 248.934 1836.83 248.934C1836.48 248.934 1836.12 248.942 1835.76 248.972C1835.59 248.987 1834.63 249.151 1835.18 249.017C1835.75 248.882 1834.74 249.106 1834.62 249.136C1834.36 249.196 1834.1 249.256 1833.84 249.323C1833.47 249.428 1833.1 249.547 1832.72 249.675C1832.52 249.742 1832.33 249.824 1832.12 249.899C1832.11 249.906 1832.07 249.921 1832.03 249.936C1831.92 249.989 1831.75 250.063 1831.71 250.086C1831.56 250.153 1831.41 250.22 1831.27 250.295C1830.94 250.46 1830.61 250.632 1830.29 250.811C1828.98 251.537 1827.73 252.374 1826.52 253.256C1826.31 253.413 1826.09 253.578 1825.88 253.742C1825.87 253.75 1825.83 253.78 1825.78 253.817C1825.69 253.892 1825.53 254.019 1825.49 254.049C1825.37 254.146 1825.24 254.251 1825.11 254.348C1824.52 254.819 1823.95 255.29 1823.36 255.769C1821.5 257.287 1818.84 257.227 1817.49 255.014C1814.95 250.819 1812.41 246.631 1809.86 242.436C1809.34 241.614 1809.24 240.686 1809.43 239.819Z" fill="#555B48"/>
<path d="M313.075 939.736C300.971 921.804 287.947 904.486 274.101 887.863C266.386 878.598 258.409 869.557 250.177 860.748C249.161 859.664 247.419 859.395 246.05 859.956C245.55 859.679 244.974 859.529 244.353 859.574C237.572 860.023 230.672 860.584 224.481 863.635C219.27 866.2 214.673 870.941 213.215 876.668C211.518 883.331 214.396 889.777 218.142 895.161C222.074 900.799 226.388 906.198 230.522 911.687C239.053 923.008 247.583 934.337 256.106 945.658C264.629 956.979 273.167 968.308 281.69 979.629C290.258 991.003 298.825 1002.38 307.386 1013.75C308.432 1015.14 309.479 1016.53 310.526 1017.92C311.685 1019.46 313.8 1020.49 315.64 1019.26C325.404 1012.79 335.175 1006.33 344.939 999.857C346.666 998.713 347.279 996.604 346.277 994.742C336.154 975.861 325.067 957.495 313.075 939.736ZM220.198 882C220.198 882.015 220.198 882.03 220.198 882.045C220.198 882.037 220.198 882.015 220.198 882ZM314.615 1010.99C307.102 1001.02 299.588 991.04 292.074 981.065C283.768 970.035 275.462 959.013 267.163 947.984C258.865 936.954 250.551 925.932 242.253 914.902C238.103 909.391 233.946 903.873 229.797 898.361C227.861 895.789 225.857 893.254 224.055 890.577C223.255 889.381 222.493 888.154 221.835 886.868C221.67 886.539 221.506 886.21 221.349 885.874C221.334 885.844 221.319 885.814 221.304 885.784C221.311 885.799 221.297 885.761 221.274 885.709C221.237 885.619 221.192 885.537 221.155 885.447C221.207 885.56 221.237 885.627 221.259 885.679C221.229 885.612 221.192 885.522 221.177 885.477C220.93 884.797 220.691 884.124 220.512 883.421C220.422 883.077 220.347 882.725 220.28 882.374C220.272 882.329 220.25 882.262 220.235 882.187C220.235 882.135 220.227 882.082 220.227 882C220.175 881.275 220.153 880.564 220.205 879.839C220.213 879.742 220.22 879.652 220.227 879.555C220.287 879.293 220.325 879.031 220.392 878.77C220.467 878.463 220.549 878.157 220.646 877.858C220.691 877.73 220.728 877.603 220.781 877.476C220.781 877.469 220.788 877.461 220.788 877.454C220.773 877.469 220.766 877.476 220.751 877.491C220.766 877.476 220.781 877.446 220.796 877.431C220.878 877.214 220.923 877.154 220.93 877.184C220.997 877.02 221.05 876.848 221.095 876.758C221.237 876.474 221.394 876.197 221.551 875.928C221.715 875.652 221.88 875.39 222.059 875.121C222.134 875.008 222.216 874.896 222.291 874.784C222.343 874.709 222.396 874.634 222.455 874.56C222.62 874.343 222.56 874.41 222.291 874.777C222.134 874.582 224.668 872.339 224.923 872.129C224.96 872.1 225.057 872.017 225.139 871.957C225.147 871.95 225.154 871.95 225.154 871.942C225.423 871.756 225.685 871.569 225.954 871.389C226.5 871.03 227.053 870.701 227.629 870.395C227.913 870.245 228.205 870.096 228.496 869.961C228.608 869.909 228.818 869.811 228.9 869.774C229.618 869.475 230.358 869.221 231.105 868.989C232.608 868.518 234.148 868.174 235.703 867.905C236.04 867.845 236.369 867.792 236.705 867.74C236.757 867.733 236.959 867.703 237.094 867.68C237.154 867.673 237.214 867.665 237.229 867.665C238.021 867.568 238.806 867.486 239.598 867.411C241.183 867.261 242.768 867.157 244.346 867.052C244.765 867.022 245.176 866.932 245.572 866.783C252.645 874.38 259.53 882.135 266.221 890.069C269.676 894.166 273.077 898.302 276.427 902.482C278.101 904.575 279.761 906.677 281.413 908.785C281.757 909.227 282.101 909.668 282.445 910.109C282.647 910.371 282.856 910.64 283.058 910.902C283.103 910.961 283.14 911.006 283.17 911.044C283.2 911.089 283.237 911.133 283.29 911.201C284.142 912.307 284.987 913.414 285.832 914.521C298.728 931.495 310.78 949.113 321.912 967.291C327.564 976.519 332.962 985.896 338.128 995.4C330.3 1000.6 322.458 1005.79 314.615 1010.99Z" fill="#231815"/>
<path d="M1985.04 162.761C1981.39 161.939 1978.1 164.04 1974.99 165.633C1970.71 167.838 1966.43 170.044 1962.15 172.25C1960.75 167.629 1959.35 163.008 1957.95 158.387C1958.41 158.319 1958.87 158.192 1959.3 157.983C1966.27 154.752 1970.96 147.664 1972.61 140.305C1974.58 131.519 1972.82 122.396 1970.31 113.901C1966.04 99.4694 1958.97 85.9871 1949.76 74.1124C1930.22 48.9349 1901.11 32.2595 1869.21 29.7021C1860.85 29.0291 1852.47 29.418 1844.18 30.6817C1842.7 30.9061 1841.19 31.1677 1839.71 31.4519C1839.62 31.3397 1839.56 31.2201 1839.47 31.1154C1839.03 30.5845 1838.58 30.0461 1838.14 29.5152C1838.15 29.5077 1838.16 29.5002 1838.17 29.5002C1838.39 29.4179 1838.7 29.3057 1838.73 29.2908C1839.31 29.0964 1839.89 28.9394 1840.48 28.8123C1841 28.7001 1841.52 28.6104 1842.05 28.5281C1842.17 28.5132 1842.3 28.4982 1842.43 28.4832C1842.87 28.4309 1843.31 28.3861 1843.76 28.3412C1845.36 28.1767 1846.97 28.0121 1848.55 27.728C1851.5 27.2045 1854.27 26.0081 1856.48 23.9518C1858.59 21.9851 1860.09 19.0164 1859.88 16.0777C1859.44 10.0431 1853.87 6.46874 1848.87 4.17307C1843.99 1.92975 1838.87 0.61367 1833.52 0.157528C1823.46 -0.694935 1812.81 1.92227 1804.54 7.76986C1799.96 11.0152 1796.04 15.143 1794.05 20.4746C1792.09 25.7389 1793.11 31.407 1796.53 35.7965C1799.95 40.1859 1805.73 41.8983 1810.92 39.7896C1812.42 39.1839 1813.82 38.4586 1815.23 37.6809C1815.8 37.3668 1816.37 37.0528 1816.96 36.7611C1817.08 36.7013 1817.38 36.5667 1817.48 36.5143C1817.78 36.3947 1818.08 36.2825 1818.39 36.1853C1818.76 36.0732 1819.13 35.9834 1819.51 35.9012C1819.53 35.8937 1819.58 35.8937 1819.62 35.8862C1819.7 35.8862 1819.79 35.8787 1819.8 35.8787C1820.05 35.8862 1820.29 35.8862 1820.53 35.8937C1820.54 35.9012 1820.56 35.9087 1820.58 35.9161C1820.66 35.9311 1820.75 35.9535 1820.82 35.9834C1820.89 36.0208 1820.96 36.0657 1821.02 36.1031C1821.02 36.1031 1821.03 36.1105 1821.04 36.1105C1821.1 36.1927 1821.2 36.2825 1821.28 36.3423C1821.28 36.3498 1821.29 36.3573 1821.29 36.3573C1821.29 36.3573 1821.29 36.3573 1821.29 36.3648C1821.39 36.4545 1821.4 36.5068 1821.37 36.5068C1821.4 36.5442 1821.41 36.5741 1821.43 36.6115C1821.28 36.8508 1821.18 37.1126 1821.1 37.3818C1817.49 38.9222 1814.41 40.1934 1810.35 41.8909C1801.85 45.4428 1793.41 49.0919 1785.01 52.8607C1778.52 55.7695 1772.08 58.7681 1765.65 61.8116C1765.58 61.6545 1765.5 61.4974 1765.41 61.3554C1764.73 60.286 1763.75 59.7252 1762.69 59.6056L1762.69 59.5981C1762.71 59.5906 1762.72 59.5831 1762.73 59.5757C1762.89 59.4784 1763.04 59.3738 1763.19 59.2766C1763.66 58.985 1764.16 58.7532 1764.66 58.5139C1764.67 58.5064 1764.69 58.4989 1764.7 58.4914C1764.73 58.4839 1764.75 58.4764 1764.78 58.4615C1765.17 58.3194 1765.56 58.1624 1765.94 58.0128C1768.37 57.0931 1770.89 56.2182 1773.08 54.79C1775.61 53.1449 1777.53 50.9763 1778.65 48.1647C1779.72 45.4951 1779.6 42.4966 1778.27 39.9392C1777.05 37.5837 1774.78 36.1031 1772.38 35.1609C1770.18 34.3009 1767.76 34.0542 1765.42 33.9121C1762.73 33.755 1760.02 33.7625 1757.33 33.942C1751.84 34.2935 1746.37 35.2505 1741.12 36.8583C1736.19 38.3688 1731.22 40.3504 1726.84 43.1023C1722.49 45.8391 1718.78 49.4433 1716.81 54.2665C1715.1 58.469 1715.57 63.3893 1717.7 67.3525C1718.81 69.4239 1720.56 71.3307 1722.64 72.4599C1725.53 74.0302 1728.76 74.1349 1731.91 73.3647C1733.35 73.0132 1734.73 72.4674 1736.13 71.9963C1736.78 71.7794 1737.43 71.57 1738.1 71.4055C1738.42 71.3232 1738.76 71.2559 1739.1 71.1886C1739.12 71.1811 1739.13 71.1811 1739.15 71.1811C1739.36 71.1587 1739.57 71.1513 1739.77 71.1438C1740.05 71.1363 1740.32 71.1512 1740.59 71.1736C1740.72 71.1961 1740.9 71.2185 1741.04 71.2559C1741.11 71.2933 1741.18 71.3232 1741.25 71.3606C1741.37 71.4204 1741.49 71.4952 1741.6 71.57C1741.67 71.6148 1741.71 71.6448 1741.75 71.6672C1741.8 71.7121 1741.85 71.757 1741.89 71.8093C1741.92 71.8392 1741.93 71.8691 1741.97 71.9139C1742.01 71.9887 1742.05 72.0635 1742.1 72.1383C1742.1 72.1607 1742.11 72.1906 1742.12 72.2131C1742.12 72.2654 1742.11 72.3103 1742.11 72.3477C1742.07 72.6618 1742.07 72.9758 1742.1 73.2974C1729.06 79.8554 1716.17 86.675 1703.41 93.7415C1703.03 92.1936 1701.78 90.9897 1700.15 90.8327C1700.12 90.7429 1700.09 90.6532 1700.06 90.5635C1700.05 90.5186 1700.04 90.4812 1700.03 90.4513C1700.03 90.3242 1700.03 90.197 1700.03 90.0699C1700.06 89.9727 1700.1 89.8307 1700.13 89.726C1700.15 89.6961 1700.16 89.6661 1700.18 89.6437C1700.23 89.5689 1700.27 89.4866 1700.33 89.4119C1700.37 89.3446 1700.4 89.3072 1700.42 89.2698C1700.5 89.1951 1700.57 89.1278 1700.59 89.1053C1700.78 88.9109 1700.99 88.7389 1701.19 88.5519C1701.31 88.4622 1701.43 88.3799 1701.55 88.2977C1703.29 87.1611 1705.26 86.4657 1707.11 85.5534C1709.41 84.4168 1711.47 82.8838 1712.92 80.7527C1715.91 76.3632 1714.25 70.1941 1710.4 66.8964C1706.22 63.322 1700.62 62.851 1695.36 63.3969C1685.29 64.4437 1675.38 68.048 1667.3 74.2022C1663.27 77.268 1659.79 80.9471 1658.02 85.7777C1656.46 90.0325 1656.99 95.0576 1659.57 98.8189C1661.14 101.1 1663.2 102.879 1665.83 103.814C1668.83 104.876 1671.92 104.24 1674.76 103.021C1676.01 102.483 1677.2 101.825 1678.43 101.227C1678.61 101.137 1678.81 101.047 1679 100.958C1678.95 100.995 1679.8 100.651 1679.91 100.621C1680.23 100.516 1680.57 100.449 1680.89 100.359C1680.96 100.337 1681.01 100.322 1681.05 100.307C1681.1 100.307 1681.14 100.314 1681.22 100.314C1681.49 100.322 1681.75 100.314 1682.02 100.329C1682.24 100.367 1682.53 100.419 1682.2 100.367C1682.2 100.367 1682.2 100.367 1682.2 100.359C1682.2 100.359 1682.2 100.359 1682.2 100.367C1682.18 100.367 1682.17 100.359 1682.14 100.352C1681.61 100.27 1682.17 100.419 1682.35 100.494C1682.42 100.561 1682.49 100.628 1682.56 100.703C1682.57 100.703 1682.57 100.711 1682.57 100.711C1682.57 100.718 1682.57 100.718 1682.58 100.726C1682.59 100.748 1682.61 100.771 1682.61 100.793C1682.2 102.281 1682.47 103.934 1683.75 104.898C1677.4 108.585 1671.06 112.316 1664.78 116.13C1662.82 117.319 1659.91 118.441 1659.13 120.759C1658.54 122.523 1658.14 124.348 1657.56 126.12C1656.47 129.448 1655.17 132.701 1653.65 135.856C1647.39 148.905 1637.93 160.57 1626.12 168.998C1623.63 170.77 1621.05 172.4 1618.39 173.895C1617.41 173.634 1616.31 173.783 1615.43 174.254C1549.01 209.542 1482.6 244.844 1416.2 280.147C1340.63 320.317 1265.08 360.503 1189.52 400.68C1117.48 438.996 1045.43 477.32 973.371 515.643C938.875 488.761 895.027 475.824 851.792 472.968C831.561 471.629 811.046 472.549 791.137 476.505C768.499 481.014 746.392 490.196 726.019 500.897C706.566 511.119 688.451 523.846 672.324 538.779C655.316 554.528 641.5 572.758 627.601 591.206C612.312 611.486 594.93 630.217 571.215 640.439C548.637 650.175 523.404 652.658 499.047 651.319C444.694 648.328 393.729 625.633 340.258 617.303C330.95 615.853 321.837 613.781 312.424 612.854C291.805 610.827 270.901 611.717 250.513 615.404C222.597 620.459 197.544 631.765 173.231 646.078C154.025 657.384 135.394 669.775 118.026 683.758C109.062 690.974 100.308 698.624 92.5698 707.163C84.2487 716.338 77.1388 726.74 70.0887 736.88C40.0715 780.086 16.4539 828.557 5.89744 880.333C-4.02357 928.99 -1.81056 980.624 15.4596 1027.41C21.007 1042.44 28.1094 1056.48 36.5501 1069.54C36.5651 1069.93 36.6623 1070.34 36.8417 1070.78C70.0288 1150.89 133.054 1216.18 215.121 1246.11C262.588 1263.43 312.948 1267.4 363.046 1263.66C414.647 1259.81 465.882 1248.75 513.67 1228.67C552.869 1212.2 589.801 1189.75 620.917 1160.64C635.414 1147.07 648.55 1132.04 659.764 1115.64C676.324 1091.43 688.712 1064.74 702.304 1038.82C714.916 1014.78 728.822 991.101 747.625 971.3C766.697 951.207 789.918 937.328 817.177 931.698C845.729 925.805 875.155 927.622 904.096 926.097C930.48 924.706 956.123 919.965 979.905 908.053C1001.3 897.337 1020.46 881.836 1035.36 863.104C1048.84 846.174 1058.3 826.904 1065.02 806.415C1080.84 758.109 1082.28 704.785 1068.14 655.911C1064.19 642.256 1058.97 629.006 1052.8 616.219C1111.19 585.426 1169.59 554.655 1228.01 523.951C1294.39 489.075 1360.87 454.356 1427.34 419.651C1479.04 392.672 1530.72 365.692 1582.41 338.712C1621.36 318.38 1660.3 298.004 1699.24 277.649C1700.98 276.744 1702.72 275.832 1704.45 274.927C1706.69 273.761 1706.75 270.755 1705.21 269.057C1704.66 268.459 1704.12 267.861 1703.59 267.263C1717.47 260.869 1732.85 257.9 1748.2 258.536C1752.38 258.708 1756.23 259.104 1760.08 259.777C1762.97 260.278 1765.8 260.944 1768.73 261.093C1770.8 261.198 1772.95 259.531 1774.72 258.573C1776.87 257.414 1779.01 256.255 1781.15 255.096C1785.37 252.823 1789.58 250.542 1793.79 248.269C1794.03 248.142 1794.27 248.015 1794.5 247.88C1794.53 247.895 1794.55 247.918 1794.57 247.94C1794.92 248.187 1795.25 248.434 1795.59 248.688C1795.71 248.778 1795.83 248.875 1795.95 248.964C1795.95 248.964 1795.95 248.964 1795.96 248.972C1796.57 249.48 1797.18 249.974 1797.75 250.527C1798.05 250.819 1798.34 251.118 1798.62 251.44C1798.71 251.544 1798.8 251.649 1798.89 251.754C1798.89 251.769 1798.89 251.776 1798.91 251.791C1799.08 252.09 1799.29 252.367 1799.45 252.674C1799.48 252.733 1799.59 252.898 1799.66 253.032C1799.67 253.062 1799.68 253.085 1799.69 253.122C1799.82 253.496 1799.92 253.87 1800.02 254.251C1800.02 254.259 1800.02 254.266 1800.03 254.274C1800.04 254.378 1800.06 254.505 1800.06 254.558C1800.07 254.76 1800.1 255.029 1800.09 255.268C1800.07 255.321 1800.04 255.38 1800.02 255.418C1800.01 255.455 1799.96 255.605 1799.92 255.739C1799.86 255.874 1799.74 256.121 1799.69 256.203C1799.67 256.233 1799.63 256.285 1799.59 256.338C1799.45 256.48 1799.32 256.629 1799.18 256.764C1799.16 256.779 1799.14 256.794 1799.12 256.809C1799.25 256.719 1799.31 256.704 1799.06 256.854C1799.03 256.876 1799 256.898 1798.98 256.921C1798.93 256.958 1798.89 256.996 1798.86 257.04C1798.89 257.003 1798.93 256.966 1798.98 256.921C1798.99 256.906 1799 256.891 1799.02 256.876C1799.01 256.876 1799.01 256.883 1799 256.883C1798.79 257.011 1798.58 257.145 1798.35 257.265C1798.19 257.354 1797.44 257.639 1798 257.452C1798.62 257.25 1797.76 257.541 1797.61 257.594C1797.29 257.713 1796.96 257.818 1796.63 257.915C1795.48 258.259 1794.29 258.521 1793.12 258.798C1790.56 259.411 1787.89 260.166 1785.75 261.766C1780.55 265.662 1778.36 272.744 1780.3 278.95C1782.3 285.314 1787.65 289.898 1793.8 292.074C1800.35 294.392 1807.77 293.861 1814.43 292.291C1820.19 290.937 1825.77 288.522 1830.73 285.306C1835.89 281.956 1840.37 277.791 1844.12 272.923C1847.85 268.093 1850.86 262.477 1851.21 256.278C1851.38 253.249 1850.7 249.937 1848.92 247.439C1846.94 244.657 1844.1 242.691 1840.75 241.928C1834.05 240.395 1827.67 243.124 1822.37 247.103C1822.15 247.267 1821.94 247.432 1821.73 247.596C1819.93 244.62 1818.12 241.651 1816.32 238.675C1815.89 237.972 1815.22 237.426 1814.46 237.12C1824.51 231.691 1834.55 226.262 1844.6 220.841C1852.48 216.586 1860.36 212.331 1868.24 208.076C1871.23 211.531 1874.24 214.986 1877.24 218.44C1877.2 218.478 1877.15 218.515 1877.12 218.545C1877.1 218.56 1876.83 218.769 1876.73 218.852C1876.59 218.949 1876.44 219.054 1876.29 219.151C1876.02 219.338 1875.74 219.517 1875.46 219.689C1874.84 220.07 1874.22 220.422 1873.58 220.751C1871.14 222.037 1868.54 223.047 1866.13 224.408C1860.97 227.331 1856 232.289 1856.42 238.705C1856.81 244.874 1861.46 249.63 1866.74 252.314C1872.38 255.186 1879.02 256.3 1885.3 256.218C1897.78 256.053 1909.86 250.699 1918.23 241.412C1922.18 237.023 1925.35 231.915 1927.31 226.337C1929.06 221.372 1929.65 215.457 1927.97 210.387C1927.11 207.8 1925.7 205.309 1923.61 203.507C1920.94 201.197 1917.75 200 1914.24 199.716C1907.43 199.17 1901.36 202.76 1896.22 206.835C1896.19 206.857 1896.17 206.88 1896.14 206.902C1894.04 203.582 1891.93 200.262 1889.84 196.942C1889.75 196.807 1889.65 196.673 1889.55 196.553C1891.57 195.461 1893.59 194.369 1895.61 193.278C1910.26 185.366 1924.9 177.462 1939.54 169.551C1941.02 172.856 1942.49 176.161 1943.96 179.466C1937.2 183.407 1930.45 187.355 1923.69 191.296C1922 192.276 1921.24 194.714 1922.35 196.411C1931.69 210.761 1951.45 217.752 1967.57 211.337C1975.78 208.069 1982.61 201.982 1986.91 194.257C1988.98 190.541 1990.52 186.451 1991.24 182.256C1991.97 178.031 1992.38 173.11 1991.03 168.96C1990.08 166.089 1988.12 163.457 1985.04 162.761ZM1984.21 172.49C1984.19 172.377 1984.18 172.273 1984.18 172.273C1984.18 172.265 1984.19 172.37 1984.21 172.49ZM1852.24 17.3638C1852.27 17.3115 1852.32 17.1993 1852.41 16.9825C1852.41 17.0797 1852.33 17.2292 1852.24 17.3638ZM1852.3 15.8084C1852.27 15.7411 1852.23 15.6514 1852.17 15.4944C1852.23 15.5766 1852.27 15.6888 1852.3 15.8084ZM1851.76 14.9336C1851.72 14.8812 1851.68 14.8214 1851.61 14.7391C1851.62 14.7391 1851.69 14.8363 1851.76 14.9336ZM1800.49 26.8605C1800.51 26.9951 1800.53 27.1372 1800.55 27.2718C1800.49 27.055 1800.46 26.8755 1800.49 26.8605ZM1802.01 30.7789C1802.06 30.8313 1802.12 30.9209 1802.24 31.078C1802.19 31.063 1802.1 30.921 1802.01 30.7789ZM1821.15 36.1928C1821.18 36.2153 1821.21 36.2377 1821.25 36.2601C1821.25 36.2676 1821.25 36.2751 1821.26 36.29C1821.22 36.2601 1821.19 36.2302 1821.15 36.1928ZM1821.28 36.3049C1821.28 36.2974 1821.28 36.29 1821.28 36.2826C1821.31 36.2975 1821.32 36.3124 1821.32 36.3124C1821.31 36.3199 1821.31 36.3124 1821.28 36.3049ZM1819.48 28.4309C1816.34 28.6403 1813.59 30.046 1810.89 31.5416C1810.33 31.8482 1809.77 32.1548 1809.2 32.439C1809 32.5362 1808.81 32.6184 1808.61 32.7082C1808.5 32.7456 1808.12 32.8951 1808.05 32.9176C1807.75 33.0148 1807.45 33.1045 1807.15 33.1793C1807 33.2092 1806.38 33.269 1806.56 33.269C1806.42 33.2765 1806.29 33.284 1806.15 33.284C1806.06 33.284 1805.97 33.2765 1805.88 33.2765C1805.67 33.1568 1804.9 33.0297 1804.62 32.9624C1804.48 32.8652 1804.29 32.7979 1804.14 32.7157C1803.93 32.596 1803.74 32.4539 1803.53 32.3343C1803.51 32.3268 1803.5 32.3193 1803.49 32.3118C1803.07 31.9305 1802.65 31.5491 1802.28 31.1154C1802.23 31.0481 1802.17 30.9883 1802.12 30.921C1802.06 30.8537 1802.03 30.8089 1802 30.7789C1801.91 30.6443 1801.85 30.5022 1801.82 30.4574C1801.55 30.0236 1801.32 29.575 1801.08 29.1263C1801.08 29.1188 1801.08 29.1188 1801.08 29.1188C1801.07 29.1039 1801.07 29.0964 1801.07 29.0815C1800.99 28.8422 1800.9 28.6028 1800.83 28.3561C1800.81 28.2738 1800.64 27.7131 1800.55 27.3093C1800.53 27.1597 1800.52 27.0101 1800.5 26.8605C1800.49 26.6063 1800.48 26.3596 1800.48 26.1054C1800.48 25.8511 1800.49 25.6043 1800.51 25.3501C1800.52 25.2529 1800.52 25.1557 1800.53 25.0659C1800.57 24.6397 1800.58 24.6845 1800.51 25.208C1800.44 24.7443 1800.75 23.9966 1800.88 23.5479C1800.96 23.2787 1801.05 23.0096 1801.14 22.7404C1801.2 22.5908 1801.25 22.4487 1801.31 22.2991C1801.76 21.3644 1802.26 20.4596 1802.84 19.5997C1802.99 19.3753 1803.15 19.0912 1803.34 18.8968C1802.71 19.5324 1803.36 18.8818 1803.48 18.7397C1803.91 18.2163 1804.37 17.7078 1804.84 17.2217C1805.66 16.3842 1806.54 15.6215 1807.44 14.8737C1807.47 14.8438 1807.5 14.8289 1807.52 14.8064C1807.54 14.7915 1807.57 14.7765 1807.6 14.7466C1807.83 14.5746 1808.07 14.4026 1808.3 14.2381C1808.76 13.9091 1809.24 13.5875 1809.72 13.281C1810.68 12.6678 1811.67 12.092 1812.69 11.5686C1813.19 11.3069 1813.7 11.0526 1814.22 10.8133C1814.48 10.6937 1814.74 10.5815 1815 10.4619C1815.02 10.4544 1815.03 10.4469 1815.06 10.4394C1815.18 10.3871 1815.3 10.3422 1815.42 10.2899C1817.55 9.44488 1819.74 8.78686 1821.97 8.30829C1822.53 8.18864 1823.09 8.07648 1823.65 7.98675C1823.94 7.94188 1824.22 7.89702 1824.5 7.85215C1824.54 7.84468 1824.57 7.83718 1824.61 7.8297C1824.62 7.8297 1824.63 7.8297 1824.64 7.8297C1825.78 7.70258 1826.91 7.59041 1828.06 7.54554C1830.35 7.44833 1832.93 7.34365 1835.19 7.83718C1834.16 7.61285 1835.63 7.91198 1835.89 7.94937C1836.45 8.04658 1837.01 8.15126 1837.58 8.27091C1838.79 8.52515 1839.98 8.83173 1841.16 9.19814C1842.26 9.53464 1843.32 9.93094 1844.39 10.3497C1844.39 10.3572 1844.4 10.3572 1844.41 10.3572C1844.63 10.4544 1844.84 10.5516 1845.06 10.6488C1845.66 10.9255 1846.26 11.2171 1846.85 11.5312C1847.86 12.0621 1848.86 12.6229 1849.8 13.2585C1850.01 13.4006 1850.25 13.5502 1850.45 13.7222C1850.52 13.7969 1850.59 13.8567 1850.63 13.8867C1850.85 14.0736 1851.05 14.268 1851.25 14.4625C1851.38 14.5971 1851.51 14.7317 1851.64 14.8663C1851.73 14.971 1851.77 15.0233 1851.79 15.0457C1851.84 15.113 1851.88 15.1728 1851.89 15.1953C1851.99 15.3448 1852.08 15.5019 1852.17 15.6589C1852.24 15.7935 1852.27 15.8533 1852.28 15.8758C1852.31 16.0178 1852.33 16.1599 1852.37 16.2646C1852.37 16.2721 1852.37 16.2721 1852.37 16.2795C1852.38 16.3917 1852.39 16.5039 1852.39 16.6086C1852.39 16.6385 1852.39 16.6535 1852.39 16.6759C1852.36 16.8329 1852.32 16.99 1852.27 17.147C1852.21 17.304 1852.2 17.3713 1852.2 17.3788C1852.12 17.491 1852.05 17.6031 1852.01 17.6704C1851.94 17.7901 1851.86 17.9022 1851.79 18.0144C1851.61 18.2013 1851.44 18.3957 1851.26 18.5752C1851.13 18.7023 1850.99 18.822 1850.85 18.9416C1850.54 19.2033 1850.58 19.1734 1850.97 18.8594C1850.73 19.2183 1849.93 19.4875 1849.56 19.6969C1849.53 19.7118 1849.51 19.7268 1849.48 19.7417C1849.45 19.7492 1849.43 19.7567 1849.4 19.7642C1848.98 19.8988 1848.57 20.0483 1848.14 20.1605C1847.39 20.3624 1846.64 20.4895 1845.87 20.6241C1845.82 20.6316 1845.78 20.6391 1845.74 20.6466C1845.69 20.654 1845.63 20.6541 1845.55 20.6615C1845.11 20.7064 1844.67 20.7587 1844.23 20.8036C1843.45 20.8858 1842.68 20.9607 1841.9 21.0504C1840.43 21.2299 1838.95 21.4242 1837.52 21.828C1834.29 22.7328 1831.62 24.4154 1829.61 27.1073C1828.56 28.5057 1829.21 30.4573 1830.19 31.6388C1830.67 32.2146 1831.15 32.7829 1831.62 33.3587C1830.58 33.6653 1829.56 33.9943 1828.54 34.3532C1828.29 33.5755 1827.92 32.8278 1827.44 32.1698C1825.58 29.6049 1822.7 28.2215 1819.48 28.4309ZM1821.52 36.7611C1821.72 37.0677 1821.63 36.9331 1821.52 36.7611V36.7611ZM1821.52 36.8807C1821.52 36.8658 1821.51 36.8583 1821.51 36.8434C1821.51 36.8359 1821.51 36.8284 1821.51 36.8209C1821.52 36.8434 1821.52 36.8583 1821.52 36.8807ZM1821.45 36.6265C1821.47 36.6863 1821.49 36.7386 1821.5 36.776C1821.5 36.7835 1821.5 36.791 1821.49 36.7985C1821.47 36.7237 1821.46 36.6639 1821.45 36.6265ZM1821.44 36.5966C1821.44 36.5891 1821.44 36.5891 1821.45 36.604C1821.45 36.604 1821.45 36.6115 1821.44 36.6115C1821.45 36.6041 1821.45 36.604 1821.44 36.5966ZM1821.41 36.477C1821.4 36.4845 1821.41 36.5144 1821.43 36.5517C1821.41 36.5218 1821.4 36.4919 1821.41 36.477ZM1821.44 36.604C1821.44 36.6115 1821.44 36.6115 1821.44 36.6115C1821.44 36.6115 1821.44 36.6115 1821.44 36.604ZM1771.63 45.8092C1771.64 45.8017 1771.64 45.7867 1771.65 45.7792C1771.64 45.7867 1771.63 45.7942 1771.63 45.8092ZM1771.93 44.8146C1771.94 44.7398 1771.96 44.6053 1771.98 44.4034C1772.01 44.4781 1771.97 44.6501 1771.93 44.8146ZM1771.73 43.4761C1771.71 43.4462 1771.68 43.4088 1771.66 43.3789C1771.71 43.4313 1771.74 43.4761 1771.73 43.4761ZM1771.25 42.9377C1771.25 42.9377 1771.21 42.9003 1771.16 42.8554C1771.22 42.8928 1771.25 42.9302 1771.25 42.9377ZM1727.26 66.373C1727.43 66.3954 1727.61 66.4178 1727.78 66.4403C1727.57 66.4403 1727.37 66.4328 1727.26 66.373ZM1741.11 71.2933C1741.21 71.3232 1741.28 71.3456 1741.3 71.3756C1741.24 71.3456 1741.17 71.3232 1741.11 71.2933ZM1741.51 71.4952C1741.53 71.5027 1741.6 71.5551 1741.68 71.6224C1741.63 71.585 1741.59 71.5476 1741.51 71.4952ZM1741.97 71.899C1742.01 71.9439 1742.04 71.9812 1742.06 72.0111C1742.06 72.0186 1742.07 72.0261 1742.07 72.0336C1742.03 71.9813 1742 71.9364 1741.97 71.899ZM1737.12 64.0025C1734.53 64.4661 1732.16 65.685 1729.6 66.2533C1729.54 66.2683 1729.11 66.3356 1728.97 66.3655C1728.74 66.3879 1728.5 66.4103 1728.26 66.4103C1728.15 66.4103 1727.97 66.4253 1727.78 66.4328C1727.64 66.4103 1727.49 66.3804 1727.36 66.3505C1727.17 66.3057 1726.97 66.2234 1726.77 66.1486C1726.72 66.1411 1726.61 66.1187 1726.49 66.0589C1726.43 66.0439 1726.37 66.0215 1726.31 66.0141C1726.37 66.0215 1726.41 66.029 1726.46 66.0364C1726.45 66.029 1726.43 66.0289 1726.43 66.0215C1726.19 65.8943 1725.97 65.7448 1725.74 65.5953C1725.65 65.4981 1725.54 65.4158 1725.45 65.3186C1725.29 65.169 1725.13 65.012 1724.99 64.8475C1724.98 64.84 1724.98 64.84 1724.98 64.8325C1724.99 64.8624 1725 64.8849 1725.01 64.9148C1725 64.8774 1724.97 64.8401 1724.95 64.8027C1724.84 64.6681 1724.8 64.5634 1724.79 64.5185C1724.62 64.2717 1724.41 64.0174 1724.27 63.7856C1724.2 63.651 1724.12 63.524 1724.06 63.3894C1724.03 63.3295 1724 63.2622 1723.97 63.1949C1723.98 62.8884 1723.61 62.2153 1723.53 61.9162C1723.43 61.5573 1723.37 61.1984 1723.3 60.8394C1723.29 60.6076 1723.26 60.3833 1723.26 60.1514C1723.24 59.6953 1723.26 59.2467 1723.29 58.7905C1723.29 58.8055 1723.28 58.8129 1723.27 58.8279C1723.28 58.8129 1723.29 58.7905 1723.29 58.7681C1723.29 58.7232 1723.3 58.6783 1723.3 58.6409C1723.32 58.439 1723.35 58.3569 1723.38 58.3494C1723.38 58.2746 1723.39 58.1998 1723.4 58.155C1723.52 57.6839 1723.67 57.2426 1723.82 56.7865C1723.82 56.779 1723.83 56.7716 1723.83 56.7566C1723.94 56.5547 1724.03 56.3453 1724.13 56.1434C1724.43 55.5676 1724.77 55.0143 1725.13 54.4759C1725.18 54.4011 1725.24 54.3263 1725.29 54.2515C1725.54 53.9225 1725.51 53.9524 1725.21 54.3412C1725.25 54.2216 1725.47 54.0197 1725.56 53.9076C1725.92 53.4813 1726.3 53.07 1726.69 52.6662C1727.09 52.2699 1727.51 51.8811 1727.94 51.5147C1728.08 51.3876 1728.23 51.268 1728.37 51.1483C1728.46 51.0735 1728.55 51.0062 1728.64 50.9314C1728.67 50.909 1728.69 50.8866 1728.74 50.8567C1730.59 49.5555 1732.5 48.4115 1734.54 47.4169C1735.07 47.1552 1735.61 46.9084 1736.14 46.6617C1736.45 46.5196 1736.76 46.3849 1737.07 46.2503C1737.14 46.2204 1737.2 46.198 1737.24 46.1756C1737.29 46.1532 1737.35 46.1307 1737.42 46.1008C1738.68 45.5998 1739.93 45.1212 1741.21 44.6875C1743.66 43.8575 1746.16 43.1695 1748.68 42.6311C1749.89 42.3694 1751.1 42.1451 1752.33 41.9581C1752.55 41.9207 1752.78 41.8908 1753 41.8609C1753.03 41.8609 1753.6 41.7787 1753.68 41.7712C1754.45 41.674 1755.24 41.5992 1756.02 41.5319C1758.6 41.315 1761.19 41.2403 1763.77 41.33C1764.9 41.3674 1766.02 41.4496 1767.14 41.5393C1767.16 41.5393 1767.18 41.5393 1767.2 41.5468C1767.45 41.5917 1767.7 41.6291 1767.95 41.674C1768.46 41.7712 1768.97 41.8983 1769.46 42.0479C1769.7 42.1226 1769.94 42.2123 1770.18 42.2871C1770.19 42.2946 1770.2 42.3021 1770.21 42.3096C1770.27 42.347 1770.82 42.6236 1771.1 42.7956C1771.15 42.833 1771.19 42.8779 1771.26 42.9452C1771.28 42.9601 1771.43 43.1097 1771.56 43.2443C1771.61 43.3265 1771.67 43.4088 1771.72 43.4985C1771.76 43.5583 1771.79 43.6256 1771.82 43.6929C1771.84 43.7303 1771.84 43.7453 1771.85 43.7901C1771.86 43.85 1771.9 44.0369 1771.93 44.164C1771.93 44.2239 1771.94 44.2762 1771.94 44.336C1771.94 44.4257 1771.94 44.5081 1771.93 44.5978C1771.93 44.7324 1771.92 44.8146 1771.92 44.8445C1771.88 44.9717 1771.84 45.0988 1771.82 45.1586C1771.79 45.2708 1771.75 45.4502 1771.71 45.6073C1771.69 45.6447 1771.66 45.697 1771.61 45.7718C1771.48 46.0111 1771.36 46.2503 1771.21 46.4896C1771.13 46.6242 1771.04 46.7513 1770.95 46.8785C1770.66 47.2 1770.36 47.4992 1770.04 47.7908C1769.94 47.8656 1769.66 48.1049 1769.59 48.1572C1769.25 48.389 1768.9 48.6059 1768.54 48.8153C1767.96 49.1518 1767.35 49.4434 1766.73 49.72C1766.66 49.7499 1766.51 49.8172 1766.4 49.8621C1766.09 49.9892 1765.77 50.1163 1765.45 50.236C1762.69 51.2978 1759.85 52.2101 1757.58 54.1767C1754.91 56.4874 1753.99 60.0243 1755.47 63.2472C1755.91 64.2119 1756.59 65.0718 1757.41 65.7448C1754.66 67.0758 1751.9 68.4144 1749.16 69.7753C1748.59 68.0704 1747.43 66.5823 1745.85 65.4233C1743.29 63.5913 1740.11 63.4641 1737.12 64.0025ZM1760.91 59.8C1760.71 59.8673 1760.51 59.9347 1760.31 60.0244C1760.47 59.9496 1760.64 59.8823 1760.8 59.8075C1760.84 59.8075 1760.88 59.8 1760.91 59.8ZM1700.24 89.5315C1700.25 89.4941 1700.3 89.4269 1700.36 89.3596C1700.33 89.4044 1700.29 89.4568 1700.24 89.5315ZM1706.82 76.4679C1706.83 76.4305 1706.84 76.3932 1706.86 76.3632C1706.84 76.4231 1706.83 76.4679 1706.82 76.4679ZM1706.99 75.9669C1707 75.937 1707 75.9146 1707.01 75.8847C1707 75.9295 1707 75.9669 1706.99 75.9669ZM1665.88 94.8856C1665.93 94.9454 1665.95 94.9753 1665.99 95.0202C1665.92 94.9454 1665.88 94.8931 1665.88 94.8856ZM1682.7 100.606C1682.7 100.576 1682.7 100.546 1682.71 100.501C1682.74 100.434 1682.8 100.299 1682.88 100.098C1682.8 100.27 1682.75 100.442 1682.7 100.606ZM1679.57 93.0386C1676.91 93.4648 1674.56 94.8781 1672.17 96.0371C1671.94 96.1493 1671.7 96.2615 1671.46 96.3662C1671.39 96.3961 1671.32 96.4185 1671.28 96.4335C1670.73 96.6055 1670.18 96.7774 1669.61 96.8896C1669.56 96.8971 1669.51 96.8971 1669.47 96.8971C1669.25 96.8971 1669.02 96.8896 1668.8 96.8896C1668.58 96.8298 1668.37 96.7924 1668.16 96.7251C1668.15 96.7251 1668.13 96.7176 1668.13 96.7176C1667.99 96.6279 1667.66 96.5008 1667.58 96.4559C1667.45 96.3812 1667.32 96.2988 1667.19 96.2166C1667.19 96.2241 1667.2 96.2316 1667.2 96.239C1667.2 96.2316 1667.19 96.2167 1667.18 96.2017C1666.73 95.9101 1666.88 95.9549 1667.03 96.0521C1666.81 95.8352 1666.42 95.4988 1666.35 95.4165C1666.33 95.4016 1666.22 95.2744 1666.11 95.1473C1666.08 95.1174 1666.07 95.095 1666.04 95.0501C1665.97 94.9529 1665.9 94.8482 1665.84 94.7435C1665.6 94.3621 1665.4 93.9659 1665.19 93.577C1665.13 93.42 1665.07 93.2555 1665.02 93.0984C1664.89 92.7021 1664.8 92.2908 1664.69 91.887C1664.69 91.902 1664.68 91.9244 1664.67 91.9319C1664.68 91.9169 1664.69 91.8945 1664.69 91.8646C1664.69 91.8422 1664.68 91.8123 1664.67 91.7898C1664.59 91.4758 1664.63 91.4384 1664.67 91.5057C1664.64 91.2813 1664.6 91.0346 1664.6 90.9598C1664.6 90.7654 1664.72 89.9876 1664.67 89.7858C1664.68 89.7558 1664.68 89.7185 1664.69 89.6885C1664.72 89.5016 1664.77 89.3146 1664.81 89.1277C1664.91 88.7389 1665.01 88.1781 1665.19 87.7668C1665.22 87.7219 1665.26 87.6696 1665.29 87.6098C1665.46 87.2658 1665.62 86.9292 1665.81 86.5927C1666.04 86.174 1666.29 85.7703 1666.55 85.3665C1666.7 85.1272 1666.88 84.8953 1667.04 84.656C1667.06 84.6261 1667.07 84.6112 1667.09 84.5888C1667.11 84.5663 1667.13 84.5364 1667.16 84.499C1667.87 83.6914 1668.58 82.8988 1669.37 82.1585C1669.76 81.7921 1670.17 81.4331 1670.58 81.0816C1670.76 80.9246 1670.95 80.7676 1671.15 80.6105C1671.2 80.5657 1671.39 80.4236 1671.52 80.3264C1672.37 79.7057 1673.23 79.0926 1674.11 78.5243C1676.18 77.1858 1678.35 75.9894 1680.59 74.9574C1681 74.763 1681.42 74.5835 1681.84 74.4041C1681.99 74.3443 1682.3 74.2171 1682.35 74.1947C1682.55 74.1124 1682.75 74.0377 1682.95 73.9629C1684.15 73.4993 1685.37 73.0805 1686.6 72.7141C1688.86 72.0336 1691.16 71.4952 1693.49 71.1213C1693.68 71.0914 1693.87 71.0615 1694.08 71.0316C1693.99 71.0466 1694.22 71.0091 1694.35 70.9867C1694.38 70.9792 1694.41 70.9793 1694.44 70.9718C1694.4 70.9793 1694.39 70.9792 1694.36 70.9867C1694.37 70.9867 1694.4 70.9792 1694.4 70.9792C1695.04 70.9044 1695.68 70.8372 1696.32 70.7774C1697.48 70.6802 1698.65 70.6278 1699.82 70.6727C1700.15 70.6802 1700.46 70.7026 1700.77 70.725C1700.87 70.7325 1701.33 70.7997 1701.4 70.7997C1701.8 70.867 1702.19 70.9494 1702.58 71.0466C1702.97 71.1513 1703.36 71.2784 1703.74 71.4205C1703.79 71.4504 1704.22 71.6448 1704.3 71.6897C1704.59 71.8467 1704.85 72.0336 1705.13 72.1981C1705.32 72.3701 1705.51 72.5421 1705.69 72.7216C1705.84 72.8711 1705.97 73.0282 1706.1 73.1777C1706.11 73.1852 1706.11 73.1927 1706.12 73.2002C1706.25 73.4245 1706.4 73.6413 1706.54 73.8731C1706.58 73.9404 1707.03 74.6434 1706.7 74.1349C1706.39 73.6638 1706.75 74.2919 1706.79 74.419C1706.8 74.4714 1706.91 74.7929 1706.98 75.0621C1706.98 74.9574 1706.99 74.9275 1706.99 75.0846C1707.03 75.2566 1707.06 75.3986 1707.03 75.4136C1707.01 75.4285 1706.99 75.3836 1706.99 75.3163C1706.99 75.436 1706.99 75.6154 1706.99 75.75C1706.98 75.8173 1706.97 75.8846 1706.96 75.9519C1706.96 75.9444 1706.92 76.109 1706.88 76.2436C1706.84 76.3333 1706.79 76.4305 1706.74 76.5202C1706.67 76.6474 1706.59 76.8044 1706.49 76.9465C1706.45 76.9764 1706.41 77.0138 1706.38 77.0363C1706.12 77.2755 1705.87 77.5298 1705.6 77.7691C1705.6 77.7765 1705.59 77.784 1705.58 77.7915C1705.55 77.8065 1705.53 77.8214 1705.49 77.8438C1705.26 77.9859 1705.04 78.1504 1704.8 78.2925C1704.32 78.5766 1703.83 78.8384 1703.33 79.0852C1702.24 79.6235 1701.11 80.0722 1700.01 80.5957C1697.52 81.7846 1695.13 83.4446 1693.7 85.8674C1691.4 89.7708 1692.76 95.4839 1696.63 97.5178C1694.43 98.7591 1692.22 100 1690.03 101.249C1690.1 100.576 1690.07 99.8807 1689.91 99.1479C1689.6 97.7421 1688.8 96.4335 1687.83 95.4015C1685.69 93.1433 1682.58 92.56 1679.57 93.0386ZM1068.47 719.629C1068.95 714.82 1069.28 710.02 1069.43 705.227C1071.47 729.709 1069.91 754.535 1064.71 778.8C1060.58 798.04 1054.47 817.236 1045.21 834.651C1033.69 856.307 1016.91 875.121 996.847 889.224C976.466 903.544 953.23 912.697 928.611 916.338C900.545 920.496 872.03 918.641 843.807 920.713C817.065 922.672 790.86 928.662 768.342 943.819C747.842 957.623 731.484 976.661 717.87 997.113C688.413 1041.34 671.592 1093.04 636.52 1133.66C610.57 1163.71 578.243 1187.83 543.284 1206.42C500.669 1229.09 453.95 1243.52 406.371 1251.15C355.622 1259.3 302.825 1261.08 252.487 1249.41C209.962 1239.56 169.725 1220.44 135.723 1192.99C103.149 1166.7 76.5706 1133.56 57.0725 1096.57C71.8157 1113.23 88.9887 1127.87 108.001 1140.48C152.544 1170.01 204.205 1190.45 256.21 1202.18C309.681 1214.24 365.483 1216.6 419.462 1206.41C466.189 1197.58 510.792 1177.7 549.213 1149.76C585.061 1123.69 615.617 1090.65 637.754 1052.19C653.275 1025.23 668.975 998.369 684.473 971.389C690.08 961.631 695.792 951.768 702.73 942.884C709.773 933.859 719.096 926.77 728.553 920.444C749.92 906.169 774.271 896.829 799.525 892.32C855.141 882.397 913.097 891.071 967.188 871.793C990.379 863.53 1010.71 850.594 1027.06 832.094C1043.47 813.512 1056.92 791.617 1062.97 767.396C1066.84 751.903 1066.89 735.481 1068.47 719.629ZM1061.08 681.642C1062.57 694.593 1062.23 707.47 1060.91 720.421C1059.28 736.506 1059.26 753.084 1054.88 768.705C1048.04 793.142 1033.41 815.075 1015.89 833.178C978.552 871.741 921.463 876.721 870.924 879.069C843.037 880.363 814.65 880.849 787.339 887.19C763.49 892.724 740.485 902.691 720.524 916.914C711.679 923.218 703.276 930.03 696.615 938.659C690.23 946.93 684.802 955.903 679.561 964.929C671.158 979.398 662.822 993.897 654.411 1008.37C637.455 1037.54 621.785 1067.46 599.707 1093.22C569.107 1128.92 530.47 1157.53 487.683 1176.95C441.435 1197.94 390.701 1206.48 340.079 1205.25C285.786 1203.92 232.002 1191.41 181.904 1170.67C135.214 1151.35 89.2578 1124.87 56.766 1085.38C25.2012 1047.02 9.49354 997.479 7.6469 948.231C5.71803 896.769 19.0781 845.98 41.5443 799.94C52.9456 776.579 66.5823 754.34 81.7815 733.268C85.4823 728.138 89.2728 723.083 93.1529 718.088C93.609 717.505 94.0651 716.907 94.5286 716.323C94.6108 716.219 94.708 716.099 94.7753 716.024C96.3827 714.088 98.0499 712.211 99.7844 710.386C124.561 684.229 156.148 664.159 187.317 646.616C227.576 623.958 273.854 614.895 319.691 621.192C358.104 626.463 395.351 637.837 432.852 647.334C478.569 658.909 528.586 666.589 573.51 647.551C618.697 628.408 639.085 581.672 672.571 548.897C704.068 518.066 745.704 494.369 788.834 484.656C829.333 475.533 873.69 479.287 912.918 492.245C931.915 498.519 950.172 507.448 966.186 519.494C961.79 521.835 957.402 524.168 953.006 526.508C876.733 567.075 800.46 607.634 724.187 648.194C664.713 679.817 605.232 711.433 545.744 743.041C523.614 733.365 498.538 728.243 473.082 728.243C433.106 728.243 395.486 740.506 367.158 762.768C338.561 785.238 322.809 815.202 322.809 847.139C322.809 879.077 338.561 909.032 367.158 931.511C395.493 953.779 433.106 966.035 473.082 966.035C513.057 966.035 550.678 953.772 579.006 931.511C607.602 909.04 623.355 879.077 623.355 847.139C623.355 845.539 623.302 843.931 623.22 842.324C714.535 794.586 805.708 746.556 896.851 698.497C946.524 672.302 996.181 646.1 1045.85 619.905C1052.57 639.953 1058.66 660.577 1061.08 681.642ZM537.213 747.55L494.464 770.268L574.176 867.92L578.4 865.706C590.9 859.193 603.393 852.665 615.886 846.145C615.886 846.466 615.893 846.795 615.893 847.117C615.893 908.554 551.837 958.535 473.097 958.535C394.357 958.535 330.3 908.554 330.3 847.117C330.3 785.68 394.357 735.698 473.097 735.698C495.413 735.698 517.416 739.781 537.213 747.55ZM1584.21 329.35C1537.28 353.862 1490.33 378.352 1443.4 402.856C1383.3 434.226 1323.19 465.572 1263.17 497.061C1153.19 554.759 1043.37 612.742 933.53 670.687C829.976 725.312 726.4 779.907 622.652 834.165L622.644 834.046L576.112 858.468L506.022 772.601L554.409 746.892L554.401 746.885C603.393 720.847 652.385 694.817 701.37 668.772C776.932 628.602 852.487 588.417 928.042 548.239C1006.89 506.304 1085.73 464.376 1164.58 422.441C1240.85 381.874 1317.12 341.315 1393.39 300.755C1461.23 264.683 1529.08 228.618 1596.93 192.567C1603.46 189.098 1610 185.621 1616.53 182.151C1640.81 208.988 1665.08 235.826 1689.37 262.664C1691.77 265.318 1694.17 267.973 1696.57 270.635C1659.11 290.204 1621.66 309.788 1584.21 329.35ZM1787.76 270.755C1787.72 270.867 1787.68 270.972 1787.68 270.964C1787.67 270.942 1787.72 270.844 1787.76 270.755ZM1787.85 277.941C1787.87 277.971 1787.87 277.993 1787.87 278.001C1787.87 278.001 1787.87 277.971 1787.85 277.941ZM1789.15 280.117C1789.15 280.124 1789.22 280.207 1789.28 280.296C1789.23 280.229 1789.17 280.162 1789.15 280.117ZM1842.34 261.632C1842.39 261.512 1842.43 261.43 1842.45 261.363C1842.42 261.467 1842.37 261.609 1842.34 261.632ZM1838.17 249.017C1838.79 249.069 1838.23 249.039 1838.03 249.002C1838.08 249.009 1838.13 249.017 1838.17 249.017ZM1817.48 255.029C1818.82 257.25 1821.49 257.31 1823.35 255.784C1823.93 255.306 1824.51 254.835 1825.1 254.363C1825.22 254.266 1825.35 254.162 1825.48 254.064C1825.52 254.034 1825.67 253.915 1825.77 253.832C1825.81 253.795 1825.86 253.765 1825.87 253.758C1826.08 253.593 1826.29 253.436 1826.51 253.272C1827.71 252.382 1828.96 251.552 1830.27 250.826C1830.6 250.647 1830.93 250.475 1831.26 250.31C1831.4 250.243 1831.54 250.168 1831.69 250.101C1831.74 250.079 1831.91 250.004 1832.02 249.952C1832.06 249.937 1832.1 249.922 1832.11 249.914C1832.31 249.839 1832.51 249.765 1832.71 249.69C1833.07 249.563 1833.45 249.443 1833.83 249.338C1834.09 249.271 1834.35 249.204 1834.61 249.151C1834.73 249.129 1835.74 248.897 1835.17 249.032C1834.61 249.166 1835.57 248.994 1835.74 248.987C1836.1 248.965 1836.46 248.95 1836.82 248.95C1837.13 248.95 1837.45 248.965 1837.75 248.987C1837.84 248.994 1837.91 249.002 1837.99 249.009C1838.2 249.114 1838.67 249.129 1838.86 249.174C1839.2 249.256 1839.54 249.353 1839.87 249.466C1840.03 249.518 1840.72 249.869 1840.27 249.608C1839.78 249.323 1840.63 249.802 1840.76 249.877C1840.98 249.996 1841.19 250.138 1841.4 250.273C1841.51 250.385 1841.69 250.497 1841.78 250.587C1842.01 250.797 1842.21 251.028 1842.43 251.245C1842.48 251.32 1842.55 251.402 1842.58 251.44C1842.75 251.694 1842.91 251.956 1843.05 252.225C1843.11 252.329 1843.15 252.442 1843.21 252.546C1843.38 253.062 1843.54 253.586 1843.65 254.124C1843.65 254.184 1843.67 254.229 1843.68 254.266C1843.68 254.274 1843.68 254.281 1843.68 254.289C1843.69 254.64 1843.72 254.992 1843.73 255.343C1843.74 255.844 1843.83 256.764 1843.62 257.227C1843.62 257.227 1843.75 256.48 1843.66 256.913C1843.63 257.048 1843.62 257.183 1843.59 257.325C1843.53 257.691 1843.45 258.05 1843.36 258.416C1843.2 259.052 1843.03 259.688 1842.82 260.308C1842.71 260.622 1842.6 260.929 1842.48 261.243C1842.47 261.265 1842.46 261.31 1842.44 261.363C1842.43 261.378 1842.43 261.378 1842.43 261.4C1842.39 261.49 1842.35 261.572 1842.31 261.662C1841.22 264.099 1839.75 266.365 1838.16 268.496C1838.1 268.579 1838.04 268.653 1837.98 268.736C1837.97 268.743 1837.97 268.743 1837.96 268.751C1837.75 269.005 1837.55 269.267 1837.34 269.521C1836.92 270.029 1836.49 270.53 1836.05 271.024C1835.14 272.041 1834.18 273.02 1833.18 273.955C1832.18 274.89 1831.15 275.787 1830.08 276.64C1829.96 276.729 1829.85 276.812 1829.74 276.901C1829.4 277.163 1829.93 276.767 1829.93 276.752C1829.77 276.976 1829.37 277.178 1829.14 277.343C1828.57 277.761 1827.99 278.165 1827.4 278.554C1825.16 280.042 1822.8 281.351 1820.35 282.465C1820.05 282.599 1819.75 282.749 1819.45 282.861C1819.35 282.899 1819.24 282.936 1819.16 282.973C1818.55 283.22 1817.93 283.452 1817.31 283.669C1816.01 284.125 1814.71 284.521 1813.38 284.865C1812.1 285.194 1810.81 285.471 1809.51 285.688C1809.18 285.74 1808.86 285.785 1808.53 285.845C1808.52 285.845 1808.52 285.845 1808.51 285.845C1808.4 285.86 1808.27 285.875 1808.15 285.89C1807.3 285.987 1806.46 286.062 1805.61 286.106C1804.02 286.189 1802.44 286.174 1800.86 286.032C1800.69 286.017 1800.16 285.949 1800.1 285.949C1799.8 285.905 1799.48 285.852 1799.18 285.792C1798.35 285.635 1797.53 285.433 1796.72 285.194C1796.35 285.082 1795.98 284.955 1795.6 284.82C1795.45 284.76 1795.29 284.701 1795.12 284.641C1794.98 284.589 1794.91 284.559 1794.88 284.551C1794.95 284.574 1795.19 284.671 1795.19 284.678C1795.18 284.693 1795.06 284.641 1794.88 284.551C1794.41 284.327 1793.57 283.871 1793.46 283.803C1792.89 283.482 1792.34 283.13 1791.81 282.749C1791.74 282.697 1791.66 282.644 1791.6 282.584C1791.59 282.577 1791.59 282.577 1791.58 282.57C1791.3 282.323 1791.01 282.091 1790.74 281.837C1790.3 281.425 1789.88 280.999 1789.5 280.543C1789.46 280.498 1789.39 280.431 1789.32 280.356C1789.32 280.349 1789.32 280.341 1789.31 280.334C1789.1 280.035 1788.88 279.735 1788.69 279.429C1788.35 278.905 1788.08 278.352 1787.79 277.799C1787.74 277.672 1787.68 277.537 1787.67 277.5C1787.54 277.156 1787.43 276.804 1787.34 276.445C1787.27 276.154 1787.2 275.862 1787.14 275.563C1787.13 275.518 1787.13 275.481 1787.12 275.443C1787.12 275.428 1787.12 275.421 1787.12 275.406C1787.08 274.8 1787.06 274.202 1787.09 273.589C1787.1 273.379 1787.26 272.519 1787.13 273.05C1786.98 273.604 1787.2 272.706 1787.24 272.527C1787.38 271.899 1787.58 271.301 1787.8 270.695C1787.85 270.605 1787.9 270.523 1787.9 270.515C1788.01 270.284 1788.14 270.059 1788.27 269.842C1788.42 269.596 1788.58 269.364 1788.73 269.125C1788.81 269.035 1788.88 268.945 1788.96 268.863C1789.16 268.646 1789.36 268.429 1789.58 268.227C1789.63 268.175 1789.82 268.04 1789.91 267.958C1790.35 267.659 1790.8 267.382 1791.3 267.15C1791.33 267.135 1791.37 267.12 1791.4 267.098C1791.62 267.031 1791.83 266.941 1792.04 266.866C1792.62 266.672 1793.2 266.507 1793.78 266.35C1794.92 266.051 1796.07 265.804 1797.21 265.513C1799.78 264.862 1802.24 263.942 1804.28 262.2C1806.83 260.032 1807.81 256.584 1807.38 253.346C1806.91 249.884 1804.92 246.893 1802.33 244.605C1802.11 244.411 1801.88 244.216 1801.65 244.029C1804.25 242.631 1806.83 241.233 1809.43 239.834C1809.23 240.702 1809.34 241.629 1809.84 242.459C1812.39 246.639 1814.94 250.834 1817.48 255.029ZM1867.41 232.446C1867.41 232.446 1867.34 232.506 1867.26 232.566C1867.33 232.499 1867.41 232.439 1867.41 232.446ZM1899.67 245.749C1899.67 245.749 1899.67 245.757 1899.66 245.757C1899.8 245.697 1899.95 245.637 1899.67 245.749ZM1919.4 209.856C1919.37 209.826 1919.35 209.796 1919.36 209.796C1919.35 209.796 1919.37 209.819 1919.4 209.856ZM1914.83 207.261C1914.83 207.261 1914.72 207.239 1914.62 207.224C1914.7 207.224 1914.78 207.231 1914.83 207.261ZM1892.02 214.38C1893.38 216.534 1896.02 216.728 1897.89 215.135C1898.99 214.186 1900.11 213.236 1901.24 212.324C1901.37 212.219 1901.5 212.122 1901.62 212.017C1901.64 212.01 1901.7 211.965 1901.75 211.92C1901.81 211.875 1901.88 211.823 1901.89 211.815C1902.02 211.718 1902.15 211.621 1902.28 211.523C1902.89 211.075 1903.51 210.649 1904.14 210.237C1905.3 209.482 1906.52 208.817 1907.78 208.241C1907.89 208.196 1908.08 208.121 1908.2 208.076C1908.53 207.957 1908.86 207.852 1909.19 207.747C1909.81 207.56 1910.44 207.403 1911.08 207.291C1911.16 207.276 1911.26 207.254 1911.36 207.239C1911.38 207.239 1911.4 207.239 1911.43 207.239C1911.72 207.224 1912.02 207.186 1912.32 207.171C1913 207.141 1913.7 207.149 1914.39 207.209C1914.42 207.209 1914.45 207.209 1914.49 207.216C1914.51 207.224 1914.53 207.224 1914.56 207.231C1914.89 207.313 1915.22 207.366 1915.55 207.448C1915.84 207.523 1916.11 207.605 1916.39 207.702C1916.51 207.74 1916.62 207.792 1916.74 207.829C1916.77 207.844 1916.8 207.867 1916.84 207.882C1917.35 208.158 1917.83 208.443 1918.3 208.764C1918.33 208.794 1918.36 208.816 1918.41 208.869C1918.61 209.063 1918.82 209.25 1919.01 209.452C1919.18 209.624 1919.34 209.818 1919.5 209.99C1919.53 210.028 1919.55 210.065 1919.56 210.073C1919.87 210.536 1920.15 211 1920.4 211.501C1920.43 211.553 1920.5 211.718 1920.56 211.845C1920.62 212.009 1920.7 212.211 1920.72 212.264C1920.89 212.765 1921.03 213.266 1921.14 213.782C1921.21 214.058 1921.26 214.343 1921.32 214.627C1921.32 214.642 1921.32 214.664 1921.32 214.687C1921.3 215.24 1921.44 215.831 1921.45 216.384C1921.48 217.498 1921.25 218.62 1921.29 219.719C1921.28 219.614 1921.28 219.532 1921.28 219.465C1921.28 219.599 1921.27 219.764 1921.26 219.876C1921.21 220.13 1921.17 220.385 1921.11 220.639C1921 221.23 1920.86 221.82 1920.7 222.404C1920.4 223.533 1920.01 224.624 1919.58 225.709C1919.57 225.724 1919.57 225.739 1919.57 225.754C1919.55 225.784 1919.54 225.821 1919.51 225.873C1919.4 226.135 1919.28 226.397 1919.16 226.658C1918.87 227.264 1918.57 227.862 1918.26 228.453C1917.65 229.59 1917 230.704 1916.29 231.781C1915.95 232.297 1915.6 232.813 1915.24 233.314C1915.07 233.545 1914.9 233.777 1914.73 234.009C1914.72 234.016 1914.72 234.031 1914.71 234.039C1914.64 234.121 1914.55 234.241 1914.53 234.271C1912.91 236.282 1911.12 238.152 1909.16 239.842C1908.73 240.216 1908.28 240.574 1907.84 240.941C1907.82 240.948 1907.82 240.948 1907.81 240.963C1907.73 241.023 1907.65 241.083 1907.58 241.143C1907.31 241.345 1907.04 241.539 1906.76 241.734C1905.71 242.481 1904.62 243.177 1903.5 243.82C1902.4 244.448 1901.27 245.031 1900.12 245.555C1899.94 245.637 1899.76 245.712 1899.58 245.794C1899.31 245.899 1899.05 246.011 1898.78 246.108C1898.08 246.377 1897.37 246.631 1896.66 246.856C1895.28 247.304 1893.88 247.671 1892.46 247.97C1891.83 248.105 1891.19 248.224 1890.56 248.321C1890.35 248.359 1890.13 248.389 1889.92 248.419C1889.91 248.419 1889.86 248.426 1889.8 248.434C1889.73 248.441 1889.66 248.449 1889.64 248.456C1889.42 248.478 1889.21 248.501 1889 248.523C1886.16 248.807 1883.31 248.807 1880.47 248.523C1880.18 248.493 1879.89 248.456 1879.61 248.426C1879.51 248.411 1879.23 248.374 1879.08 248.344C1878.34 248.224 1877.6 248.082 1876.86 247.925C1875.52 247.633 1874.19 247.275 1872.88 246.841C1872.58 246.744 1872.29 246.639 1872 246.527C1871.91 246.497 1871.58 246.362 1871.46 246.31C1871.29 246.235 1871.08 246.138 1871 246.101C1870.71 245.958 1870.43 245.816 1870.14 245.667C1869.61 245.383 1869.09 245.084 1868.59 244.762C1868.35 244.612 1868.12 244.463 1867.9 244.306C1867.79 244.231 1867.67 244.149 1867.56 244.067C1867.55 244.067 1867.55 244.059 1867.55 244.059C1867.55 244.067 1867.55 244.074 1867.55 244.074C1867.55 244.074 1867.54 244.059 1867.53 244.052C1867.09 243.73 1867.31 243.857 1867.46 243.977C1867.19 243.73 1866.43 243.094 1866.34 243.012C1866.12 242.795 1865.91 242.578 1865.7 242.347C1865.55 242.182 1865.36 241.846 1865.16 241.704C1865.11 241.629 1865.06 241.554 1865.01 241.479C1864.86 241.27 1864.74 241.053 1864.61 240.829C1864.49 240.619 1864.39 240.395 1864.27 240.186C1864.24 240.088 1864.21 239.999 1864.17 239.901C1864.09 239.67 1864.02 239.43 1863.97 239.184C1863.95 239.109 1863.93 239.027 1863.91 238.952C1863.91 238.989 1863.91 239.027 1863.91 239.071C1863.91 239.027 1863.91 238.982 1863.91 238.937C1863.91 238.899 1863.9 238.855 1863.88 238.817C1863.82 238.555 1863.91 238.436 1863.92 238.735C1863.93 238.316 1863.88 237.86 1863.89 237.456C1863.91 237.381 1863.92 237.299 1863.94 237.224C1864 236.97 1864.06 236.708 1864.15 236.462C1864.16 236.409 1864.18 236.357 1864.2 236.305C1864.36 236.095 1864.5 235.669 1864.62 235.452C1864.75 235.228 1864.89 235.004 1865.04 234.787C1865.08 234.719 1865.18 234.607 1865.26 234.503C1865.66 234.076 1866.04 233.635 1866.48 233.231C1866.68 233.044 1866.88 232.865 1867.09 232.693C1867.1 232.685 1867.16 232.633 1867.22 232.581C1867.74 232.207 1868.27 231.833 1868.81 231.496C1873.33 228.662 1878.52 227.219 1882.6 223.63C1883.69 222.673 1884.6 221.544 1885.42 220.355C1886.41 218.926 1885.87 217.02 1884.84 215.823C1881.54 212.024 1878.24 208.226 1874.94 204.427C1877.65 202.969 1880.35 201.503 1883.05 200.045C1883.14 200.269 1883.24 200.494 1883.37 200.711C1886.26 205.272 1889.14 209.826 1892.02 214.38ZM1878.08 194.25C1854.42 207.029 1830.76 219.809 1807.09 232.588C1794.14 239.587 1781.19 246.579 1768.23 253.578C1767.51 253.518 1766.8 253.459 1766.09 253.376C1766.01 253.354 1765.9 253.317 1765.73 253.272C1765.17 253.122 1764.58 253.032 1764.01 252.92C1762.72 252.666 1761.41 252.442 1760.11 252.24C1754.86 251.44 1749.56 250.976 1744.24 250.969C1733.83 250.954 1723.33 252.494 1713.37 255.545C1708.22 257.123 1703.2 259.127 1698.34 261.475C1675.74 236.492 1653.14 211.501 1630.54 186.518C1628.37 184.11 1626.18 181.702 1624.01 179.294C1639.87 169.85 1652.79 155.388 1660.57 138.668C1662.76 133.987 1664.57 129.156 1665.96 124.183C1690.62 109.153 1715.84 95.0276 1741.58 81.9266C1767.67 68.6462 1794.32 56.779 1821.29 45.4054C1824.04 44.2463 1826.74 42.9452 1829.52 41.8534C1829.61 41.816 1829.72 41.7637 1829.81 41.7188C1830.01 41.6814 1830.76 41.4796 1830.89 41.4347C1832.54 40.9188 1834.19 40.4476 1835.86 40.0139C1839.06 39.1839 1842.31 38.5034 1845.58 37.9874C1858.37 35.9609 1871.66 36.5816 1884.24 39.5877C1908.28 45.3231 1929.62 59.8897 1944.55 79.5039C1951.69 88.8809 1957.46 99.3798 1961.37 110.507C1965.26 121.589 1969.6 136.499 1961.55 146.811C1959.94 148.882 1957.91 150.423 1955.54 151.522C1954.15 152.165 1953.55 153.848 1953.76 155.328C1953.59 155.351 1953.42 155.388 1953.26 155.44C1953 155.523 1952.75 155.635 1952.53 155.762C1951.45 155.276 1950.17 155.306 1949.07 155.904C1925.41 168.691 1901.74 181.47 1878.08 194.25ZM1984.34 177.163C1984.32 177.604 1984.29 178.046 1984.25 178.487C1984.23 178.711 1984.21 178.928 1984.18 179.145C1984.16 179.324 1984.15 179.496 1984.12 179.676C1984.15 179.519 1984.17 179.362 1984.19 179.212C1984.2 180.095 1983.88 181.104 1983.69 181.956C1983.49 182.861 1983.24 183.766 1982.97 184.656C1982.69 185.546 1982.38 186.421 1982.02 187.288C1982.01 187.318 1982 187.355 1981.99 187.393C1981.92 187.557 1981.84 187.714 1981.77 187.864C1981.57 188.313 1981.36 188.754 1981.13 189.187C1980.29 190.855 1979.32 192.455 1978.23 193.981C1978.08 194.198 1977.92 194.414 1977.76 194.624C1977.72 194.684 1977.68 194.728 1977.66 194.766C1977.43 195.065 1977.17 195.357 1976.93 195.633C1976.33 196.344 1975.69 197.032 1975.03 197.69C1974.38 198.348 1973.69 198.983 1972.98 199.589C1972.66 199.866 1972.33 200.127 1972.01 200.389C1971.99 200.397 1971.98 200.404 1971.98 200.412C1971.76 200.569 1971.55 200.726 1971.33 200.883C1969.82 201.959 1968.21 202.909 1966.53 203.702C1966.29 203.814 1966.04 203.926 1965.8 204.038C1965.79 204.038 1965.79 204.046 1965.79 204.046C1965.39 204.203 1964.99 204.36 1964.59 204.502C1963.72 204.808 1962.85 205.085 1961.96 205.309C1961.08 205.541 1960.18 205.728 1959.27 205.878C1959.09 205.908 1958.89 205.938 1958.71 205.967C1958.23 206.012 1957.76 206.072 1957.28 206.102C1955.46 206.237 1953.63 206.222 1951.8 206.065C1951.54 206.042 1951.28 206.02 1951.03 205.99C1950.95 205.982 1950.09 205.923 1950.74 205.96C1951.39 205.997 1950.54 205.93 1950.46 205.915C1950.24 205.885 1950.03 205.848 1949.82 205.81C1948.91 205.653 1948.01 205.466 1947.12 205.242C1946.11 204.988 1945.1 204.689 1944.11 204.345C1943.62 204.173 1943.13 203.993 1942.64 203.799C1942.62 203.791 1942.57 203.776 1942.51 203.747C1942.59 203.776 1941.92 203.492 1941.84 203.455C1939.97 202.61 1938.18 201.6 1936.48 200.441C1936.08 200.172 1935.7 199.888 1935.3 199.604C1935.28 199.589 1935.27 199.582 1935.25 199.567C1935.25 199.559 1935.24 199.559 1935.24 199.552C1935.04 199.387 1934.83 199.223 1934.63 199.058C1933.83 198.393 1933.06 197.682 1932.32 196.942C1931.9 196.516 1931.48 196.074 1931.09 195.618C1937.6 191.82 1944.1 188.021 1950.62 184.222C1952.5 183.123 1952.78 180.954 1951.95 179.107C1950 174.733 1948.06 170.358 1946.11 165.984C1946.29 165.887 1946.46 165.79 1946.64 165.7C1948.28 164.81 1949.93 163.928 1951.57 163.038C1953.14 168.227 1954.71 173.409 1956.28 178.599C1957.01 180.999 1959.6 181.956 1961.78 180.835C1966.4 178.457 1971.02 176.072 1975.65 173.694C1977.81 172.579 1979.96 171.316 1982.2 170.336C1982.22 170.343 1982.76 170.142 1982.82 170.119C1982.92 170.089 1983.04 170.067 1983.15 170.037C1983.03 170.089 1983.24 170.104 1983.35 170.089C1983.33 170.067 1983.32 170.052 1983.32 170.037C1983.32 170.037 1983.33 170.037 1983.34 170.044C1983.33 170.037 1983.32 170.029 1983.31 170.022V170.014H1983.3C1983.3 170.014 1983.29 170.014 1983.29 170.007H1983.3L1983.31 170.014V170.007C1983.31 170.007 1983.31 170.007 1983.32 170.007C1983.32 170.007 1983.32 170.007 1983.31 170.007V170C1983.3 170 1983.29 170 1983.29 170C1983.29 170 1983.29 170 1983.29 170C1983.27 170 1983.25 169.992 1983.24 169.992C1983.19 169.977 1983.14 169.97 1983.07 169.955C1983.09 169.955 1983.18 169.97 1983.27 169.985C1983.17 169.895 1983.12 169.835 1983.29 169.985C1983.29 169.985 1983.31 169.985 1983.32 169.992C1983.32 169.977 1983.32 169.962 1983.32 169.955C1983.32 169.955 1983.33 169.97 1983.35 169.992H1983.34C1983.35 169.992 1983.35 169.992 1983.35 169.992C1983.35 169.992 1983.35 169.992 1983.36 169.992C1983.59 170.022 1983.83 170.059 1983.4 170.007C1983.38 170.007 1983.38 170.007 1983.37 170C1983.38 170.007 1983.38 170.015 1983.38 170.029C1983.37 170.022 1983.35 170.014 1983.34 170.014C1983.35 170.022 1983.36 170.029 1983.37 170.044C1983.38 170.044 1983.38 170.052 1983.39 170.052C1983.4 170.059 1983.41 170.067 1983.41 170.082C1983.4 170.082 1983.4 170.074 1983.39 170.074C1983.4 170.082 1983.4 170.082 1983.41 170.089C1983.72 170.366 1983.62 170.329 1983.49 170.224C1983.58 170.366 1983.68 170.53 1983.7 170.575C1983.71 170.598 1983.72 170.613 1983.73 170.635C1983.75 170.755 1983.85 170.949 1983.88 171.054C1984.01 171.495 1984.12 171.944 1984.21 172.4C1984.22 172.482 1984.24 172.542 1984.24 172.594C1984.26 172.736 1984.27 172.878 1984.27 172.908C1984.32 173.394 1984.35 173.88 1984.37 174.374C1984.39 175.301 1984.39 176.236 1984.34 177.163ZM1983.53 170.164C1983.5 170.179 1983.44 170.142 1983.38 170.097C1983.4 170.089 1983.4 170.082 1983.39 170.074C1983.5 170.112 1983.58 170.142 1983.53 170.164Z" fill="#231815"/>
</svg>
