<svg width="575" height="507" viewBox="0 0 575 507" fill="none" xmlns="http://www.w3.org/2000/svg">
<path d="M564.907 54.4706C564.1 43.9419 563.815 33.0319 561.057 22.7874C558.859 14.6366 552.751 2.03668 543.009 10.2098C535.712 16.3266 533.813 27.304 533.133 36.2698C532.333 46.8508 532.512 57.5439 532.311 68.1474C531.884 91.2686 531.458 114.382 531.032 137.503C531.002 139.164 530.09 140.255 528.916 140.764C532.064 153.065 534.501 165.56 536.183 178.182C536.819 182.946 529.335 182.886 528.707 178.182C526.247 159.69 522.046 141.422 516.274 123.685C511.175 108.026 504.813 92.8015 497.254 78.1751C490.309 64.745 482.676 51.0308 472.545 39.7095C464.179 30.3623 451.066 19.7739 437.549 21.6284C434.431 22.0546 431.396 23.3557 430.304 26.5038C429.101 30.0034 429.841 34.6097 430.439 38.1691C431.815 46.3348 435.127 53.8724 439.934 60.5799C440.435 61.2753 440.636 61.9708 440.622 62.6138C449.705 73.7706 458.273 85.4359 466.183 97.4078C475.67 111.765 484.074 126.833 490.705 142.73C494.077 150.821 496.963 159.114 499.206 167.586C500.379 172.028 501.381 176.515 502.189 181.039C502.555 183.103 502.884 185.174 503.176 187.253C503.28 188.001 503.377 188.748 503.475 189.496C503.489 189.608 503.504 189.721 503.519 189.833C503.736 189.96 503.938 190.109 504.133 190.266C506.719 192.42 505.83 196.989 502.495 197.811C498.682 198.746 496.746 195.112 496.305 192.009C494.929 182.355 493.113 172.911 490.286 163.563C480.433 130.975 461.63 101.722 440.891 75.0493C435.867 68.5811 430.835 62.0156 425.206 56.0558C419.815 50.3503 413.468 44.7944 405.625 42.9997C402.881 42.3716 397.013 41.579 394.979 44.3158C392.968 47.0228 394.904 53.9546 395.487 56.9457C397.229 65.8293 400.706 74.1071 405.655 81.6671C406.485 82.9383 406.418 84.1797 405.849 85.1593C419.247 101.745 427.62 122.301 436.48 141.512C445.945 162.015 454.61 182.983 459.806 205.02C460.912 209.709 453.698 211.69 452.599 207.009C447.231 184.224 438.139 162.636 428.271 141.489C420.054 123.894 412.414 104.818 399.973 89.6982C394.388 82.9084 387.727 76.9786 379.907 72.8883C374.95 70.2935 359.818 63.4664 356.79 71.2656C354.278 77.7414 357.912 86.3333 360.887 92.0687C364.311 98.6715 368.827 104.639 373.365 110.494C382.277 122.002 391.876 133.832 394.314 148.615C394.613 150.432 393.723 151.846 392.482 152.623C392.43 153.693 391.884 154.725 390.628 155.398C371.952 165.373 357.829 182.549 350.413 202.291C341.613 225.718 342.069 251.494 348.35 275.468C349.568 280.134 342.361 282.108 341.142 277.457C337.307 262.816 335.513 247.411 336.5 232.246C336.47 232.261 336.432 232.284 336.402 232.299C302.834 249.58 269.258 266.868 235.69 284.149C217.792 293.362 199.893 302.582 181.995 311.795C176.455 314.651 170.908 317.5 165.368 320.357C163.162 321.493 160.464 323.505 157.959 323.901C156.172 324.185 154.131 323.759 152.337 323.677C147.679 323.46 143.021 323.355 138.364 323.318C122.805 323.206 107.225 323.916 91.7567 325.576C72.924 327.595 54.1212 331.095 36.1034 337.032C24.1488 340.973 12.3065 346.103 1.72754 353.064C7.16278 364.737 11.7906 376.769 15.3642 389.144C25.1133 422.832 27.4533 458.635 22.7881 493.452C46.9215 500.129 72.9464 500.174 97.7077 498.073C120.032 496.181 143.545 492.614 164.314 483.805C168.351 482.093 172.067 479.969 175.752 477.606C184.739 471.833 193.755 466.098 202.772 460.37C220.027 449.415 237.312 438.498 254.5 427.423C287.067 406.448 319.312 384.89 350.032 361.267C365.665 349.251 380.879 336.673 395.525 323.475C402.762 316.947 409.864 310.269 416.81 303.435C420.481 299.823 424.151 296.196 427.688 292.457C431.037 288.92 433.751 284.8 436.906 281.091C443.231 273.651 450.685 267.983 459.469 263.705C468.119 259.488 476.508 255.532 484.395 249.931C491.983 244.54 499.049 238.453 506.42 232.777C513.179 227.573 520.364 222.952 527.122 217.74C530.584 215.07 533.97 212.221 536.916 208.976C538.785 206.919 540.063 204.534 541.753 202.358C546.411 196.331 549.678 189.661 552.609 182.602C560.429 163.788 564.481 143.501 566.066 123.243C567.83 100.339 566.664 77.3375 564.907 54.4706Z" fill="#F5B997"/>
<path d="M574.349 92.5242C574.162 81.0459 573.497 69.575 572.652 58.1266C571.86 47.4259 571.411 36.5234 569.422 25.9573C567.8 17.328 564.6 6.433 556.361 1.80428C548.107 -2.83192 539.091 2.14818 534.03 9.02023C528.251 16.8644 526.366 26.7575 525.649 36.2692C524.811 47.3362 525.006 58.5304 524.804 69.6274C524.475 87.4169 524.146 105.206 523.817 122.996C518.217 105.453 511.1 88.404 502.472 72.0576C494.503 56.9601 485.561 41.3764 473.068 29.5167C463.117 20.0798 446.976 10.3587 432.711 15.0996C422.962 18.345 421.601 27.5277 422.708 36.6356C423.052 39.4397 423.59 42.199 424.308 44.8985C416.092 37.8844 406.036 32.6724 395.479 35.7083C385.401 38.6097 386.5 48.5925 387.913 57.0049C388.758 62.0449 390.164 66.9803 392.055 71.7287C389.394 69.7396 386.59 67.9523 383.659 66.4119C376.348 62.5758 365.118 58.1266 356.857 61.185C348.491 64.2808 347.818 74.5851 349.336 82.0329C350.913 89.7873 354.652 96.9885 359.018 103.517C368.797 118.151 383.136 131.139 386.784 148.951C366.696 159.697 351.796 178.122 343.594 199.209C340.559 207.023 338.525 215.129 337.374 223.362C310.811 237.039 284.24 250.716 257.677 264.393C224.669 281.382 191.662 298.379 158.661 315.368C158.086 315.66 157.159 315.974 156.448 316.37C153.69 315.862 150.549 316.086 147.776 315.997C133.84 315.555 119.874 315.847 105.969 316.819C85.3416 318.262 63.6528 320.977 43.0482 326.742C28.7013 334.302 14.347 341.862 0 349.43C0.575672 350.626 1.14389 351.837 1.70461 353.041C12.2835 346.08 24.1259 340.942 36.0805 337.009C54.0983 331.072 72.8936 327.58 91.7337 325.553C107.202 323.893 122.783 323.175 138.341 323.295C142.999 323.332 147.656 323.437 152.314 323.654C154.108 323.736 156.149 324.162 157.936 323.878C160.441 323.482 163.14 321.47 165.345 320.334C170.885 317.477 176.432 314.628 181.972 311.772C199.87 302.559 217.769 293.339 235.667 284.126C269.235 266.845 302.811 249.557 336.38 232.276C336.409 232.261 336.447 232.238 336.477 232.223C335.49 247.388 337.284 262.792 341.12 277.434C342.338 282.085 349.553 280.111 348.327 275.445C342.047 251.471 341.598 225.695 350.39 202.268C357.807 182.519 371.929 165.35 390.605 155.375C391.861 154.702 392.407 153.67 392.459 152.6C393.708 151.815 394.597 150.409 394.291 148.592C391.853 133.801 382.254 121.979 373.342 110.471C368.804 104.608 364.288 98.641 360.864 92.0456C357.889 86.3177 354.255 77.7183 356.767 71.2426C359.795 63.4433 374.927 70.2704 379.884 72.8652C387.704 76.9555 394.365 82.8855 399.95 89.6752C412.391 104.803 420.032 123.878 428.248 141.466C438.124 162.621 447.215 184.201 452.576 206.986C453.675 211.667 460.889 209.686 459.783 204.997C454.594 182.96 445.922 161.992 436.457 141.488C427.598 122.286 419.216 101.729 405.827 85.1362C406.395 84.1566 406.462 82.9154 405.632 81.6442C400.683 74.0767 397.214 65.7988 395.465 56.9227C394.874 53.9316 392.945 46.9997 394.956 44.2928C396.99 41.5559 402.859 42.3486 405.602 42.9767C413.445 44.7713 419.792 50.3274 425.183 56.0329C430.812 61.9926 435.844 68.558 440.868 75.0263C461.607 101.707 480.41 130.96 490.264 163.54C493.09 172.888 494.906 182.339 496.282 191.986C496.723 195.096 498.659 198.723 502.472 197.788C505.807 196.973 506.704 192.397 504.11 190.243C503.915 190.079 503.706 189.937 503.497 189.81C503.482 189.697 503.467 189.585 503.452 189.473C503.354 188.725 503.257 187.978 503.153 187.23C502.861 185.151 502.532 183.08 502.166 181.016C501.358 176.492 500.356 172.005 499.183 167.563C496.94 159.091 494.061 150.798 490.682 142.707C484.051 126.81 475.647 111.742 466.16 97.3848C458.25 85.4129 449.682 73.7476 440.599 62.5908C440.614 61.9477 440.412 61.2598 439.911 60.5569C435.111 53.8419 431.792 46.3118 430.416 38.1461C429.818 34.5867 429.07 29.9804 430.282 26.4808C431.366 23.3327 434.401 22.0316 437.526 21.6053C451.051 19.7508 464.164 30.3468 472.522 39.6865C482.653 51.0078 490.293 64.722 497.231 78.152C504.797 92.7785 511.152 108.003 516.251 123.662C522.03 141.399 526.232 159.667 528.684 178.159C529.312 182.863 536.796 182.923 536.16 178.159C534.486 165.537 532.048 153.042 528.893 140.741C530.067 140.225 530.979 139.14 531.009 137.48C531.435 114.359 531.862 91.2455 532.288 68.1243C532.482 57.5209 532.31 46.8277 533.11 36.2467C533.79 27.2809 535.682 16.3036 542.986 10.1868C552.728 2.0211 558.836 14.6211 561.034 22.7643C563.793 33.0088 564.077 43.9189 564.884 54.4475C566.641 77.307 567.807 100.316 566.013 123.213C564.428 143.47 560.376 163.75 552.556 182.571C549.618 189.63 546.358 196.308 541.7 202.327C540.018 204.511 538.732 206.889 536.863 208.945C533.917 212.191 530.531 215.04 527.069 217.709C520.318 222.921 513.134 227.535 506.367 232.747C498.996 238.422 491.931 244.509 484.342 249.901C476.455 255.502 468.074 259.457 459.417 263.675C450.639 267.952 443.185 273.62 436.853 281.061C433.698 284.777 430.984 288.89 427.635 292.427C424.099 296.166 420.42 299.792 416.757 303.404C409.811 310.239 402.709 316.924 395.472 323.444C380.826 336.643 365.612 349.22 349.979 361.237C319.251 384.859 287.006 406.41 254.447 427.393C237.259 438.46 219.974 449.377 202.719 460.339C193.702 466.067 184.686 471.803 175.7 477.576C172.021 479.939 168.298 482.062 164.261 483.775C143.492 492.583 119.979 496.15 97.6549 498.042C72.8935 500.143 46.8612 500.106 22.7353 493.421C22.3913 495.993 22.0025 498.566 21.5764 501.131C37.4186 505.46 54.5168 506.515 70.3366 506.619C96.339 506.791 122.85 503.822 147.985 497.055C157.173 494.58 166.541 491.596 174.862 486.893C182.765 482.421 190.271 477.105 197.934 472.229C206.988 466.464 216.049 460.728 225.11 454.978C292.785 412.026 360.58 368.281 418.387 312.265C422.072 308.691 425.721 305.079 429.317 301.415C433.108 297.556 436.322 293.571 439.687 289.346C446.303 281.038 453.615 274.802 463.192 270.128C472.208 265.739 480.881 261.581 489.052 255.681C496.813 250.08 504.072 243.821 511.676 238.019C524.094 228.552 538.328 220.708 546.978 207.614C548.272 205.655 549.991 203.973 551.3 202.021C554.178 197.744 556.309 192.584 558.35 187.873C562.507 178.286 565.766 168.356 568.166 158.186C573.273 136.733 574.715 114.546 574.349 92.5242Z" fill="#231815"/>
</svg>
