<svg width="815" height="702" viewBox="0 0 815 702" fill="none" xmlns="http://www.w3.org/2000/svg">
<path d="M798.445 524.958C798.515 524.717 798.503 524.696 798.477 524.762C798.451 524.866 798.432 524.968 798.423 525.046C798.432 525.014 798.443 524.989 798.445 524.958Z" fill="#00FFFF"/>
<path d="M798.42 525.114C798.419 525.107 798.421 525.077 798.423 525.046C798.417 525.055 798.42 525.069 798.414 525.078C798.416 525.093 798.419 525.107 798.42 525.114Z" fill="#00FFFF"/>
<path d="M788.229 546.698C788.207 546.702 788.318 546.849 788.399 546.956C788.327 546.817 788.251 546.693 788.229 546.698Z" fill="#00FFFF"/>
<path d="M762.715 580.232C762.726 580.207 762.592 580.102 762.459 579.997C762.562 580.1 762.711 580.248 762.715 580.232Z" fill="#00FFFF"/>
<path d="M798.423 525.046C798.433 524.976 798.458 524.865 798.477 524.762C798.451 524.828 798.405 524.989 798.412 525.071C798.418 525.062 798.417 525.055 798.423 525.046Z" fill="#231815"/>
<path d="M795.969 513.644C795.979 513.657 795.981 513.672 795.991 513.685C796.031 513.738 796.01 513.704 795.969 513.644Z" fill="#231815"/>
<path d="M787.709 466.044C787.681 465.973 787.66 465.901 787.632 465.83C787.418 465.246 787.174 464.667 786.91 464.1C786.622 463.484 786.307 462.888 785.964 462.305C785.874 462.146 785.782 461.973 785.683 461.809C785.672 461.788 785.652 461.762 785.621 461.721C785.518 461.573 785.413 461.417 785.31 461.269C784.54 460.179 783.68 459.144 782.749 458.174C782.456 457.863 782.061 457.328 781.669 457.012C781.658 457.037 781.569 457.008 781.434 456.896C781.327 456.809 781.219 456.715 781.119 456.627C780.868 456.422 780.618 456.217 780.36 456.014C779.304 455.189 778.192 454.436 777.029 453.775C776.833 453.659 776.631 453.552 776.427 453.437C776.411 453.433 776.376 453.409 776.343 453.392C776.292 453.363 776.25 453.341 776.234 453.336C776.042 453.242 775.858 453.154 775.666 453.06C775.008 452.748 774.337 452.446 773.655 452.168C772.298 451.612 770.917 451.129 769.523 450.701C768.065 450.254 766.593 449.894 765.113 449.535C765.089 449.532 765.08 449.526 765.064 449.521C765.034 449.519 765.018 449.515 764.978 449.507C764.82 449.475 764.67 449.442 764.512 449.41C764.148 449.333 763.785 449.262 763.43 449.191C762.705 449.051 761.98 448.91 761.25 448.786C755.451 447.762 749.607 447.066 743.842 445.853C738.314 444.688 732.849 443.245 727.486 441.449C716.996 437.935 706.907 433.176 697.47 427.415C688.017 421.65 679.245 414.794 671.297 407.086C663.331 399.36 656.368 390.726 650.378 381.389C650.165 381.055 650.039 380.706 649.98 380.344C645.596 380.147 641.204 379.951 636.82 379.754C632.006 379.538 632.672 372.085 637.471 372.305C653.567 373.024 669.657 373.751 685.753 374.47C702.309 375.211 718.86 375.968 735.414 376.693C742.71 377.016 750.57 377.471 757.232 373.934C763.423 370.643 766.53 364.354 764.137 357.541C761.748 350.757 755.407 346.411 749.308 343.215C743.024 339.923 736.309 337.387 729.533 335.349C716.071 331.302 702.052 329.479 688.057 328.526C656.839 326.392 625.335 326.957 594.057 326.476C577.347 326.22 560.637 325.964 543.92 325.71C541.93 325.68 539.32 326.039 537.404 325.418C535.738 324.873 533.976 323.35 532.496 322.413C529.209 320.334 525.924 318.262 522.632 316.191C515.668 311.808 508.69 307.427 501.715 303.069C445.875 268.163 389.594 233.962 332.878 200.495C305.53 184.359 278.257 167.966 250.37 152.78C223.903 138.368 195.984 125.446 166.247 119.588C137.877 114.003 107.375 114.482 80.638 126.495C57.9378 136.693 38.0158 154.721 28.8535 178.22C18.786 204.03 23.5882 232.86 36.0109 256.958C48.9063 281.972 70.0227 301.262 93.2965 316.536C117.616 332.492 144.321 344.724 170.882 356.42C199.246 368.91 228.128 380.21 257.308 390.648C315.595 411.494 375.038 428.88 434.615 445.626C449.557 449.826 464.515 453.986 479.474 458.153C483.199 459.186 485.269 462.257 487.862 464.989C490.211 467.468 492.566 469.94 494.921 472.411C499.922 477.649 504.961 482.851 510.05 487.997C530.232 508.363 551.536 527.847 575.623 543.534C617.761 570.977 673.153 586.379 721.302 567.287C712.996 567.842 704.6 567.653 696.368 566.917C685.031 565.908 673.778 563.705 662.876 560.434C652.006 557.172 641.545 552.748 631.56 547.354C629.721 546.362 629.622 543.719 630.604 542.155C631.755 540.316 634.088 540.267 635.802 541.199C636.41 541.528 637.017 541.85 637.623 542.171C637.766 542.244 637.901 542.318 638.044 542.391C638.061 542.403 638.128 542.436 638.195 542.469C638.253 542.497 638.313 542.531 638.321 542.537C638.464 542.61 638.607 542.682 638.749 542.755C648.24 547.57 658.217 551.43 668.465 554.289C671.013 554.999 673.581 555.651 676.168 556.24C676.341 556.277 676.508 556.314 676.683 556.358C676.976 556.418 677.261 556.48 677.554 556.548C678.179 556.676 678.795 556.806 679.42 556.934C680.769 557.203 682.123 557.456 683.482 557.693C688.697 558.604 693.955 559.256 699.237 559.66C704.571 560.062 709.919 560.204 715.269 560.071C715.957 560.051 716.645 560.031 717.333 560.011C717.65 559.998 717.967 559.986 718.284 559.973C718.382 559.97 718.488 559.966 718.586 559.963C719.895 559.889 721.204 559.816 722.515 559.711C725.102 559.517 727.69 559.246 730.255 558.85C732.819 558.447 735.368 557.925 737.857 557.201C738.204 557.099 738.548 556.99 738.895 556.888C738.931 556.881 738.945 556.871 738.967 556.867C739.017 556.85 739.066 556.826 739.11 556.818C739.689 556.62 740.266 556.408 740.832 556.182C742.058 555.698 743.266 555.156 744.43 554.539C745.012 554.234 745.585 553.916 746.146 553.577C746.323 553.469 746.501 553.36 746.671 553.253C746.643 553.265 746.935 553.075 747.111 552.959C748.148 552.228 749.141 551.43 750.069 550.567C750.278 550.377 751.288 549.628 751.302 549.336C751.306 549.313 750.81 549.921 751.068 549.592C751.142 549.495 751.231 549.403 751.306 549.313C751.461 549.125 751.615 548.929 751.769 548.734C752.395 547.919 752.965 547.054 753.47 546.163C753.55 546.019 753.622 545.869 753.71 545.731C753.925 545.372 753.547 546.042 753.56 546.032C753.7 545.922 753.809 545.522 753.885 545.356C754.091 544.908 754.287 544.446 754.468 543.979C754.833 543.03 755.088 542.063 755.364 541.085C755.381 541.013 755.393 540.95 755.402 540.88C755.449 540.636 755.488 540.393 755.527 540.15C755.597 539.666 755.66 539.183 755.699 538.689C755.746 538.163 755.765 537.643 755.773 537.109C755.778 536.971 755.774 536.828 755.772 536.691C755.756 536.565 755.768 536.38 755.756 536.314C755.674 535.333 755.518 534.358 755.273 533.4C755.222 533.204 755.064 532.883 755.061 532.663C754.899 532.237 754.723 531.813 754.525 531.401C754.315 530.96 754.057 530.552 753.835 530.129C753.834 530.121 753.826 530.123 753.825 530.115C753.684 529.928 753.551 529.74 753.402 529.554C753.086 529.156 752.749 528.77 752.386 528.411C752.302 528.327 752.211 528.245 752.128 528.162C752.11 528.15 752.109 528.142 752.099 528.129C751.976 528.038 751.861 527.952 751.835 527.934C751.228 527.445 750.785 526.858 750.521 526.207C747.904 526.566 745.277 526.875 742.655 527.122C731.187 528.213 719.62 528.31 708.141 527.358C696.723 526.41 685.394 524.411 674.321 521.491C663.398 518.604 652.75 514.731 642.524 509.929C640.627 509.039 639.624 507.224 640.282 505.141C640.847 503.334 643.296 502.062 645.07 502.899C646.285 503.474 647.505 504.033 648.739 504.581C658.666 508.997 668.983 512.52 679.523 515.143C680.829 515.466 682.134 515.781 683.45 516.078C683.617 516.116 683.783 516.154 683.943 516.193C684.251 516.258 684.56 516.323 684.869 516.395C685.502 516.53 686.135 516.664 686.767 516.791C689.452 517.339 692.156 517.822 694.865 518.251C700.228 519.097 705.632 519.715 711.055 520.101C716.47 520.488 721.911 520.643 727.339 520.564C728.682 520.546 730.028 520.511 731.372 520.461C732.006 520.436 732.64 520.41 733.274 520.385C733.402 520.377 733.62 520.367 733.755 520.357C734.078 520.336 734.402 520.322 734.718 520.302C737.403 520.143 740.084 519.923 742.755 519.652C748.119 519.099 753.486 518.355 758.776 517.275C760.108 516.999 761.444 516.7 762.756 516.352C763.416 516.178 764.067 515.997 764.721 515.793C764.836 515.757 764.997 515.72 765.113 515.691C765.069 515.699 765.026 515.715 764.96 515.727C765.259 515.657 765.554 515.526 765.846 515.419C767.058 514.983 768.259 514.489 769.418 513.926C770.017 513.633 770.607 513.327 771.186 513C771.454 512.844 771.714 512.69 771.974 512.535C772.111 512.45 772.314 512.313 772.386 512.254C773.358 511.543 774.305 510.822 775.178 509.992C775.378 509.796 775.57 509.601 775.768 509.397C775.821 509.311 775.94 509.213 775.989 509.151C776.312 508.757 776.623 508.342 776.91 507.917C777.228 507.456 777.511 506.97 777.787 506.486C777.799 506.469 777.797 506.461 777.809 506.444C777.815 506.435 777.814 506.428 777.82 506.419C777.929 506.186 778.038 505.953 778.139 505.714C778.364 505.201 778.557 504.679 778.732 504.145C778.816 503.902 778.885 503.653 778.96 503.404C779.002 503.259 779.263 502.489 779.077 503.002C778.9 503.491 779.142 502.655 779.17 502.475C779.215 502.224 779.245 501.975 779.281 501.717C779.342 501.22 779.377 500.711 779.391 500.207C779.396 499.986 779.393 499.766 779.392 499.553C779.383 499.463 779.379 499.358 779.376 499.343C779.31 498.815 779.243 498.288 779.131 497.761C779.076 497.505 778.991 497.247 778.936 496.991C778.935 496.984 778.932 496.969 778.931 496.962C778.749 496.509 778.56 496.064 778.337 495.634C778.315 495.6 778.216 495.39 778.115 495.211C778.106 495.205 778.106 495.205 778.104 495.198C778.027 495.105 777.961 494.996 777.882 494.896C777.58 494.496 777.246 494.124 776.892 493.771C776.545 493.416 776.31 493.004 776.161 492.567C775.729 492.7 775.292 492.841 774.859 492.966C769.804 494.413 764.61 494.943 759.38 495.19C753.457 495.474 747.526 495.463 741.602 495.161C729.531 494.546 717.551 492.69 705.821 489.792C694.307 486.953 683.061 483.015 672.294 478.039C661.327 472.97 650.838 466.901 641.05 459.814C639.358 458.589 638.993 456.36 640.094 454.614C641.152 452.929 643.704 452.505 645.292 453.658C647.591 455.326 649.931 456.933 652.301 458.489C657.175 461.683 662.211 464.634 667.369 467.342C667.596 467.46 667.816 467.579 668.043 467.697C668.051 467.703 668.076 467.714 668.102 467.732C668.204 467.789 668.363 467.867 668.405 467.889C668.539 467.956 668.674 468.03 668.808 468.096C669.436 468.414 670.074 468.738 670.708 469.047C672.028 469.694 673.354 470.332 674.684 470.946C677.302 472.16 679.954 473.315 682.633 474.403C688.032 476.603 693.528 478.55 699.114 480.236C701.931 481.087 704.766 481.865 707.613 482.589C708.991 482.936 710.368 483.268 711.755 483.575C711.968 483.62 712.183 483.672 712.389 483.717C712.405 483.722 712.42 483.719 712.437 483.731C712.738 483.798 713.03 483.858 713.331 483.924C714.027 484.07 714.723 484.216 715.417 484.354C726.846 486.646 738.488 487.865 750.142 487.949C753.08 487.971 756.02 487.916 758.955 487.795C759.188 487.782 760.395 487.773 759.475 487.775C759.779 487.772 760.086 487.746 760.387 487.729C760.959 487.7 761.521 487.657 762.091 487.613C763.289 487.514 764.491 487.392 765.684 487.226C768.072 486.901 770.437 486.45 772.762 485.825C773.385 485.657 774.003 485.422 774.637 485.275C774.659 485.27 774.672 485.26 774.694 485.256C774.966 485.161 775.244 485.064 775.514 484.961C776.625 484.552 777.719 484.092 778.787 483.576C779.324 483.317 779.858 483.037 780.382 482.743C780.623 482.607 780.863 482.464 781.095 482.323C781.233 482.244 781.977 481.704 781.486 482.091C781.008 482.468 781.836 481.844 781.95 481.762C782.172 481.607 782.386 481.446 782.598 481.278C783.024 480.949 783.433 480.608 783.831 480.253C784.23 479.898 784.601 479.518 784.973 479.146C784.986 479.136 784.986 479.136 784.998 479.118C785.004 479.11 785.004 479.11 785.018 479.099C785.185 478.894 785.354 478.696 785.514 478.491C785.858 478.048 786.183 477.585 786.49 477.103C786.631 476.879 786.764 476.649 786.896 476.42C786.919 476.377 786.952 476.311 786.985 476.244C787.366 475.254 787.777 474.304 788.075 473.283C788.068 473.201 788.114 473.04 788.14 472.975C788.156 472.896 788.173 472.824 788.183 472.792C788.233 472.486 788.274 472.174 788.308 471.864C788.37 471.29 788.402 470.722 788.395 470.145C788.397 470.114 788.388 469.903 788.383 469.752C788.379 469.73 788.384 469.714 788.381 469.699C788.355 469.392 788.322 469.086 788.274 468.784C788.193 468.221 788.081 467.656 787.949 467.102C787.891 466.702 787.792 466.371 787.709 466.044Z" fill="#F5B997"/>
<path d="M776.045 445.083C770.139 442.687 763.773 441.593 757.506 440.624C754.461 440.15 751.409 439.716 748.375 439.172C747.029 438.925 745.689 438.662 744.353 438.383C744.258 438.363 743.98 438.3 743.783 438.26C743.625 438.228 743.204 438.131 743.086 438.107C742.396 437.953 741.711 437.782 741.02 437.62C735.661 436.302 730.388 434.665 725.229 432.732C722.623 431.752 720.05 430.697 717.51 429.575C716.26 429.022 715.023 428.451 713.788 427.857C713.196 427.571 712.596 427.286 712.01 426.991C711.717 426.847 711.416 426.697 711.122 426.546C710.997 426.485 710.87 426.417 710.745 426.356C710.736 426.35 710.611 426.29 710.493 426.228C710.367 426.16 709.922 425.93 709.837 425.885C709.544 425.734 709.256 425.574 708.962 425.422C708.338 425.089 707.714 424.755 707.096 424.412C705.86 423.727 704.629 423.026 703.41 422.308C701.055 420.916 698.742 419.456 696.471 417.935C691.884 414.863 687.478 411.53 683.271 407.963C682.767 407.538 682.27 407.105 681.772 406.672C681.526 406.451 681.274 406.239 681.028 406.018C680.965 405.961 680.902 405.912 680.839 405.855C680.82 405.836 680.774 405.791 680.691 405.715C679.643 404.768 678.606 403.803 677.583 402.827C675.609 400.94 673.692 398.989 671.827 396.99C668.073 392.952 664.546 388.697 661.295 384.246C660.514 383.181 659.753 382.104 659.006 381.018C658.954 380.944 658.901 380.862 658.85 380.788C668.753 381.232 678.648 381.677 688.551 382.121C705.645 382.892 722.781 384.058 739.891 384.377C752.645 384.616 769.028 381.07 772.071 366.375C775.207 351.231 761.511 340.833 749.587 335.104C722.984 322.313 692.713 320.697 663.694 320.143C629.562 319.48 595.419 319.086 561.289 318.56C557.111 318.492 552.934 318.432 548.756 318.364C546.895 318.334 545.044 318.31 543.183 318.279C540.179 318.231 539.307 317.913 536.744 316.293C529.596 311.777 522.435 307.27 515.268 302.772C500.737 293.661 486.185 284.598 471.595 275.581C442.614 257.67 413.509 239.956 384.294 222.429C355.27 205.028 326.134 187.806 296.891 170.787C269.343 154.756 241.805 138.244 212.264 126.093C183.849 114.403 153.269 107.141 122.4 109.049C94.8599 110.748 67.9181 120.699 47.3395 139.372C27.5612 157.313 15.5032 182.303 15.9327 209.223C16.3874 237.355 28.4382 264.555 46.4053 285.899C65.3345 308.381 90.3034 324.895 116.069 338.547C143.383 353.016 171.845 365.458 200.479 377.061C260.009 401.199 321.287 420.703 382.919 438.66C413.778 447.649 444.742 456.255 475.701 464.876C477.744 465.443 478.308 465.78 479.732 467.282C480.976 468.589 482.214 469.905 483.458 471.212C486.088 473.982 488.717 476.745 491.36 479.498C496.648 485.018 501.98 490.492 507.391 495.899C517.832 506.333 528.586 516.482 539.85 526.02C583.161 562.691 638.621 590.527 696.885 581.625C710.119 579.601 723.015 575.487 734.917 569.359C736.709 568.436 737.175 566.716 736.804 565.195C745.435 563.144 753.948 559.175 758.884 551.667C764.035 543.838 765.234 532.464 759.177 524.789C759.243 524.777 759.309 524.764 759.376 524.752C764.843 523.686 770.472 522.179 775.258 519.23C780.025 516.3 783.874 512.262 785.713 506.89C787.342 502.15 787.462 496.479 784.924 492.019C784.45 491.179 783.906 490.374 783.29 489.628C785.215 488.605 787.039 487.403 788.68 485.952C792.687 482.402 795.403 477.455 795.842 472.074C796.324 466.101 794.01 460.338 790.428 455.659C786.715 450.807 781.624 447.349 776.045 445.083ZM788.298 468.71C788.339 469.014 788.38 469.319 788.406 469.626C788.408 469.64 788.411 469.655 788.408 469.678C788.411 469.822 788.421 470.041 788.419 470.072C788.418 470.642 788.387 471.218 788.333 471.791C788.298 472.101 788.257 472.413 788.207 472.719C788.205 472.749 788.188 472.821 788.164 472.901C788.192 472.843 788.202 472.856 788.132 473.097C788.123 473.129 788.112 473.154 788.109 473.178C788.107 473.209 788.105 473.239 788.106 473.247C788.105 473.239 788.102 473.225 788.1 473.21C787.802 474.238 787.398 475.179 787.01 476.17C786.977 476.237 786.945 476.312 786.921 476.346C786.788 476.576 786.655 476.806 786.514 477.029C786.215 477.51 785.89 477.973 785.538 478.418C785.378 478.622 785.211 478.828 785.042 479.026C785.036 479.035 785.036 479.035 785.023 479.045C785.009 479.055 785.009 479.055 784.997 479.072C784.618 479.446 784.254 479.825 783.855 480.18C783.457 480.534 783.041 480.877 782.622 481.205C782.41 481.373 782.188 481.528 781.974 481.689C781.86 481.771 781.031 482.387 781.51 482.018C781.995 481.64 781.25 482.172 781.119 482.249C780.88 482.392 780.647 482.534 780.406 482.669C779.882 482.963 779.349 483.244 778.811 483.503C777.743 484.019 776.649 484.478 775.539 484.888C775.269 484.991 774.99 485.088 774.719 485.183C774.697 485.187 774.683 485.197 774.661 485.201C774.034 485.347 773.409 485.584 772.786 485.752C770.461 486.377 768.089 486.829 765.708 487.153C764.514 487.312 763.314 487.441 762.115 487.54C761.546 487.584 760.975 487.621 760.411 487.656C760.11 487.673 759.803 487.699 759.5 487.702C760.427 487.698 759.214 487.716 758.979 487.722C756.044 487.843 753.105 487.897 750.166 487.875C738.513 487.791 726.871 486.573 715.442 484.281C714.747 484.142 714.052 483.996 713.356 483.851C713.055 483.785 712.762 483.724 712.461 483.658C712.438 483.655 712.429 483.649 712.413 483.644C712.2 483.6 711.985 483.548 711.779 483.502C710.398 483.186 709.014 482.855 707.637 482.516C704.784 481.801 701.948 481.015 699.139 480.163C693.56 478.475 688.056 476.53 682.657 474.33C679.978 473.241 677.333 472.086 674.708 470.873C673.377 470.251 672.045 469.622 670.733 468.974C670.097 468.657 669.461 468.341 668.832 468.023C668.698 467.957 668.563 467.883 668.429 467.816C668.38 467.795 668.228 467.716 668.126 467.659C668.1 467.641 668.076 467.63 668.067 467.624C667.84 467.506 667.62 467.387 667.393 467.269C662.235 464.561 657.2 461.61 652.325 458.416C649.948 456.861 647.614 455.245 645.317 453.585C643.729 452.432 641.177 452.856 640.118 454.541C639.018 456.287 639.382 458.516 641.075 459.74C650.861 466.821 661.359 472.896 672.318 477.966C683.086 482.942 694.331 486.88 705.845 489.719C717.576 492.617 729.554 494.465 741.626 495.088C747.55 495.39 753.482 495.401 759.404 495.117C764.635 494.87 769.828 494.34 774.883 492.893C775.316 492.768 775.755 492.634 776.185 492.494C776.327 492.932 776.562 493.344 776.916 493.698C777.271 494.058 777.598 494.431 777.906 494.823C777.978 494.924 778.044 495.034 778.129 495.124C778.138 495.13 778.138 495.13 778.139 495.138C778.242 495.324 778.34 495.527 778.361 495.561C778.585 495.991 778.773 496.435 778.955 496.888C778.956 496.896 778.959 496.91 778.961 496.918C779.015 497.174 779.101 497.432 779.155 497.688C779.266 498.207 779.333 498.735 779.401 499.27C779.404 499.284 779.406 499.383 779.417 499.48C779.419 499.7 779.422 499.92 779.415 500.134C779.402 500.638 779.365 501.139 779.305 501.644C779.275 501.893 779.239 502.151 779.194 502.402C779.166 502.582 778.925 503.417 779.101 502.929C779.288 502.415 779.027 503.186 778.985 503.33C778.916 503.579 778.841 503.828 778.756 504.072C778.581 504.606 778.381 505.13 778.163 505.641C778.063 505.88 777.946 506.114 777.844 506.346C777.84 506.362 777.84 506.362 777.834 506.371C777.822 506.388 777.822 506.388 777.811 506.413C777.535 506.897 777.251 507.375 776.934 507.844C776.647 508.269 776.336 508.684 776.013 509.078C775.964 509.14 775.845 509.238 775.792 509.324C775.602 509.526 775.402 509.722 775.202 509.919C774.33 510.756 773.382 511.47 772.411 512.181C772.329 512.234 772.135 512.376 771.999 512.462C771.74 512.624 771.472 512.78 771.21 512.927C770.632 513.253 770.043 513.567 769.442 513.853C768.276 514.417 767.082 514.91 765.87 515.346C765.586 515.452 765.283 515.583 764.984 515.653C765.05 515.641 765.093 515.626 765.137 515.618C765.021 515.647 764.861 515.684 764.746 515.72C764.097 515.915 763.44 516.105 762.781 516.279C761.461 516.629 760.133 516.926 758.8 517.202C753.517 518.28 748.143 519.025 742.779 519.579C740.109 519.857 737.427 520.069 734.742 520.229C734.419 520.25 734.095 520.264 733.78 520.284C733.644 520.294 733.426 520.304 733.298 520.312C732.666 520.345 732.032 520.37 731.397 520.388C730.053 520.437 728.706 520.472 727.364 520.491C721.935 520.57 716.495 520.415 711.079 520.028C705.664 519.64 700.26 519.022 694.889 518.178C692.18 517.749 689.476 517.266 686.791 516.718C686.159 516.591 685.526 516.456 684.894 516.322C684.585 516.257 684.277 516.192 683.967 516.12C683.8 516.082 683.634 516.044 683.475 516.005C682.165 515.706 680.855 515.4 679.547 515.07C669.008 512.447 658.689 508.917 648.763 504.508C647.537 503.958 646.309 503.401 645.094 502.826C643.321 501.989 640.873 503.268 640.307 505.068C639.656 507.149 640.659 508.964 642.548 509.856C652.767 514.659 663.422 518.531 674.345 521.418C685.419 524.345 696.748 526.337 708.165 527.285C719.644 528.237 731.211 528.14 742.679 527.049C745.309 526.8 747.928 526.493 750.546 526.134C750.808 526.777 751.252 527.372 751.859 527.861C751.885 527.879 752 527.964 752.123 528.056C752.133 528.069 752.133 528.069 752.152 528.089C752.228 528.173 752.327 528.254 752.411 528.337C752.773 528.696 753.11 529.083 753.427 529.481C753.575 529.667 753.708 529.855 753.849 530.042C753.849 530.042 753.851 530.049 753.859 530.055C754.083 530.486 754.341 530.895 754.549 531.328C754.747 531.74 754.924 532.163 755.086 532.59C755.096 532.808 755.253 533.129 755.297 533.326C755.542 534.285 755.699 535.26 755.78 536.241C755.785 536.308 755.781 536.491 755.796 536.618C755.8 536.762 755.802 536.898 755.797 537.036C755.795 537.561 755.771 538.09 755.723 538.616C755.683 539.102 755.622 539.593 755.551 540.077C755.512 540.32 755.473 540.563 755.427 540.807C755.417 540.877 755.398 540.941 755.388 541.012C755.112 541.99 754.857 542.957 754.492 543.906C754.312 544.373 754.121 544.826 753.909 545.283C753.833 545.449 753.724 545.849 753.585 545.959C753.571 545.969 753.95 545.298 753.735 545.657C753.647 545.803 753.575 545.945 753.495 546.089C752.991 546.988 752.419 547.846 751.794 548.66C751.647 548.855 751.492 549.043 751.33 549.24C751.248 549.331 751.166 549.422 751.093 549.519C750.834 549.848 751.323 549.241 751.327 549.263C751.313 549.562 750.302 550.303 750.094 550.494C749.165 551.356 748.172 552.155 747.136 552.885C746.961 553.009 746.669 553.199 746.696 553.179C746.518 553.288 746.349 553.403 746.17 553.504C745.609 553.843 745.037 554.161 744.454 554.466C743.282 555.077 742.083 555.625 740.857 556.109C740.283 556.336 739.714 556.547 739.134 556.745C739.084 556.762 739.041 556.777 738.991 556.794C738.969 556.798 738.956 556.808 738.919 556.815C738.573 556.917 738.228 557.026 737.882 557.127C735.385 557.853 732.845 558.381 730.279 558.777C727.715 559.173 725.127 559.444 722.54 559.638C721.227 559.735 719.919 559.816 718.61 559.89C718.512 559.893 718.406 559.897 718.308 559.9C717.991 559.912 717.674 559.925 717.357 559.938C716.671 559.965 715.983 559.985 715.293 559.998C709.95 560.13 704.596 559.989 699.261 559.587C693.981 559.19 688.721 558.53 683.506 557.619C682.147 557.383 680.793 557.13 679.444 556.861C678.821 556.74 678.197 556.612 677.579 556.474C677.286 556.414 677.001 556.353 676.708 556.285C676.534 556.249 676.367 556.211 676.192 556.167C673.613 555.577 671.046 554.931 668.49 554.216C658.241 551.357 648.265 547.497 638.774 542.682C638.631 542.609 638.488 542.536 638.346 542.464C638.33 542.459 638.277 542.423 638.219 542.396C638.152 542.363 638.085 542.329 638.068 542.317C637.925 542.245 637.79 542.171 637.647 542.098C637.041 541.776 636.434 541.455 635.827 541.125C634.112 540.194 631.78 540.243 630.628 542.082C629.646 543.646 629.745 546.289 631.585 547.281C641.562 552.676 652.03 557.099 662.9 560.361C673.802 563.632 685.054 565.827 696.393 566.843C704.624 567.58 713.022 567.776 721.326 567.214C673.177 586.306 617.784 570.896 575.648 543.46C551.56 527.774 530.256 508.29 510.075 487.924C504.978 482.779 499.946 477.576 494.946 472.337C492.583 469.868 490.236 467.395 487.886 464.915C485.293 462.184 483.216 459.114 479.498 458.08C464.539 453.913 449.589 449.752 434.639 445.553C375.071 428.813 315.619 411.421 257.333 390.575C228.152 380.136 199.27 368.837 170.906 356.347C144.345 344.651 117.64 332.418 93.3208 316.463C70.047 301.189 48.9306 281.899 36.0352 256.884C23.6125 232.787 18.8103 203.957 28.8779 178.147C38.0415 154.655 57.9621 136.62 80.6623 126.422C107.392 114.411 137.894 113.931 166.272 119.515C196.014 125.364 223.927 138.294 250.395 152.707C278.282 167.892 305.555 184.286 332.902 200.422C389.618 233.889 445.898 268.083 501.74 302.995C508.723 307.36 515.692 311.734 522.656 316.118C525.949 318.188 529.234 320.26 532.52 322.34C534 323.276 535.762 324.8 537.429 325.345C539.344 325.965 541.962 325.606 543.944 325.636C560.654 325.892 577.364 326.148 594.081 326.403C625.36 326.883 656.856 326.32 688.081 328.452C702.069 329.407 716.095 331.229 729.557 335.276C736.34 337.313 743.057 339.856 749.332 343.142C755.432 346.338 761.773 350.684 764.161 357.468C766.555 364.281 763.447 370.57 757.257 373.861C750.594 377.398 742.734 376.943 735.438 376.62C718.885 375.894 702.333 375.138 685.777 374.397C669.682 373.678 653.592 372.951 637.496 372.232C632.698 372.02 632.03 379.464 636.844 379.681C641.229 379.878 645.62 380.074 650.005 380.271C650.064 380.633 650.189 380.982 650.402 381.316C656.392 390.653 663.355 399.286 671.322 407.013C679.269 414.72 688.041 421.577 697.494 427.342C706.938 433.101 717.027 437.86 727.511 441.375C732.873 443.172 738.331 444.616 743.866 445.78C749.631 446.992 755.476 447.689 761.274 448.713C762.005 448.845 762.729 448.977 763.454 449.118C763.817 449.188 764.179 449.258 764.536 449.337C764.694 449.369 764.845 449.402 765.002 449.434C765.042 449.441 765.058 449.446 765.089 449.448C765.105 449.453 765.112 449.451 765.137 449.462C766.617 449.821 768.089 450.181 769.547 450.628C770.949 451.054 772.33 451.537 773.679 452.095C774.354 452.374 775.024 452.669 775.69 452.987C775.881 453.074 776.066 453.169 776.258 453.263C776.274 453.268 776.318 453.298 776.367 453.319C776.401 453.336 776.435 453.359 776.452 453.364C776.654 453.471 776.85 453.587 777.053 453.702C778.21 454.371 779.329 455.123 780.384 455.941C780.642 456.144 780.893 456.349 781.143 456.554C781.25 456.64 781.359 456.734 781.459 456.822C781.593 456.935 781.681 456.957 781.693 456.939C782.086 457.255 782.481 457.79 782.773 458.101C783.704 459.07 784.562 460.099 785.334 461.196C785.438 461.344 785.542 461.5 785.646 461.648C785.676 461.688 785.696 461.715 785.707 461.736C785.697 461.722 785.695 461.708 785.685 461.694C785.726 461.755 785.746 461.782 785.707 461.736C785.806 461.9 785.899 462.073 785.989 462.231C786.332 462.815 786.648 463.418 786.935 464.027C787.199 464.594 787.441 465.165 787.656 465.757C787.684 465.827 787.705 465.9 787.733 465.971C787.823 466.296 787.923 466.628 787.998 466.956C788.106 467.582 788.217 468.147 788.298 468.71ZM778.091 495.086C778.002 494.973 777.9 494.832 777.922 494.828C777.936 494.818 778.011 494.941 778.091 495.086ZM752.399 528.355C752.394 528.371 752.245 528.223 752.143 528.121C752.276 528.225 752.409 528.33 752.399 528.355Z" fill="#231815"/>
</svg>
